<svg xmlns="http://www.w3.org/2000/svg" viewBox="0 0 807.12 81"><title>Arunika</title><g id="Layer_2" data-name="Layer 2"><g id="Layer_1-2" data-name="Layer 1"><path d="M62.26,79.24c-10.39,1.11-10.4,1.12-13.59-7.63-1.93-5.31-4-10.58-5.7-16-1-3.06-2.78-4.33-5.9-4.06-1.48.12-3,.07-4.49.09-11.63.13-11.64.13-15.65,11.23-1.13,3.13-2.21,6.27-3.27,9.42-2.48,7.4-2.47,7.4-10.06,7.32H0c.69-2.24,1.2-4.2,1.88-6.11C10,50.88,18.1,28.19,26.44,5.59c.8-2.17,3.21-3.74,4.88-5.59C32.92,1.89,35.2,3.53,36,5.72c8.29,22.44,16.35,45,24.45,67.48C61.11,75,61.58,77,62.26,79.24ZM37.41,40.51c-2-5.54-3.86-10.61-5.7-15.68L30.58,25C28.83,30,27.07,35.1,25.21,40.51Z"/><path d="M552.73,27.93V78.7C545.9,80.56,543.81,79.91,542,75a25.51,25.51,0,0,1-24.41,4.78c-12.53-3.7-21.42-17.85-19.41-30.82,2.22-14.29,13.74-25.06,26.91-24.89,2.77,0,5.91.28,8.23,1.58C539.42,29.11,545.79,29.4,552.73,27.93Zm-9.81,24.74c.06-10-7.36-17.79-16.92-17.74-9.18,0-17,8-17.11,17.39A17.5,17.5,0,0,0,526.16,70C535.6,70,542.87,62.54,542.92,52.67Z"/><path d="M807.12,52.34c.07,16.24-11.77,28.48-27.59,28.53a28.19,28.19,0,0,1-28.46-28A28.53,28.53,0,0,1,779.26,24C795,23.84,807.05,36.17,807.12,52.34ZM779.55,69.87A17.61,17.61,0,0,0,796.71,52.1c-.24-9.2-8.4-17.29-17.38-17.23A17.86,17.86,0,0,0,762,52.57,17.4,17.4,0,0,0,779.55,69.87Z"/><path d="M449.08,29.47c-2.44,3.09-4.77,6.09-7.14,9.05-5.86,7.28-6.43,5.77-1.15,15,4.77,8.35,9.4,16.78,14.15,25.26-9.25,2.48-11.5,1.54-16-6.23-2.74-4.76-5.55-9.48-8.36-14.2-.14-.24-.53-.33-1.47-.87V79.05H419.08V9.44h9.63V36.51C437.55,27.8,441.23,26.54,449.08,29.47Z"/><path d="M707.31,39.17c-7.42,4.34-8.08,4.31-14.4-.8s-14.61-4.75-21.08.68A17.81,17.81,0,0,0,668,61.26c4.13,7,13.29,10.81,20.15,8.12a17.42,17.42,0,0,0,4.51-3c5.37-4.47,8-4.64,14.21-.73-2.73,9.7-14.63,16.29-27.34,15.14s-23.31-12-24.6-25.52c-1.3-13.72,7.31-26.71,20.08-30.3A27.43,27.43,0,0,1,707.31,39.17Z"/><path d="M267.31,79.07V28.49l12.27.83c4.36-5,11.26-5.14,18.36-2.2,7.44,3.09,9.72,9.62,9.79,17.07.12,11.47,0,22.94,0,34.31a6.53,6.53,0,0,1-1.65.78c-8.48.8-8.47.79-8.48-7.7,0-8.33,0-16.65-.05-25-.06-4.88-2.66-8-7.11-9.84-4.08-1.65-7.88-.71-10.39,2.46a14.62,14.62,0,0,0-2.68,8.12c-.32,10.14-.15,20.3-.18,30.45,0,.31-.23.61-.51,1.27Z"/><path d="M207.6,28.8h9.67a20.41,20.41,0,0,1,.56,3.37c0,9.33.16,18.66-.05,28-.27,12.23-8.72,20.1-21.35,20.19-11.94.09-20.59-8.08-20.85-20.14-.23-10.29-.05-20.58-.05-31.22h10.33V57.29c0,4.61,1.39,8.59,5.64,10.94,6.62,3.65,14.56,0,15.39-7.74.87-8.07.54-16.28.71-24.42C207.64,33.78,207.6,31.49,207.6,28.8Z"/><path d="M117.07,79.15h-9.81V28.83c3.71.66,8.28-2.81,10.68,3.63l12.93-6.75c0,3.43.3,6.2-.12,8.86-.24,1.43-1.46,3.4-2.7,3.86-7.88,2.89-10.84,8.85-11,16.67S117.07,70.71,117.07,79.15Z"/><path d="M358.16,28.67H368V79a12,12,0,0,1-2.12.49c-7.73.16-7.73.15-7.73-7.72q0-18.72,0-37.44Z"/><path d="M370.68,14.28a7.32,7.32,0,0,1-14.64.47,7.32,7.32,0,0,1,14.64-.47Z"/><path d="M614.74,72.62A7.36,7.36,0,1,1,600,73a7.19,7.19,0,0,1,7.2-7.22A7,7,0,0,1,614.74,72.62Z"/></g></g></svg>