<svg xmlns="http://www.w3.org/2000/svg" viewBox="0 0 1918.92 1094.46"><defs><style>.cls-1{fill:#2e3192;}</style></defs><title>BelaHotel</title><g id="Layer_2" data-name="Layer 2"><g id="Layer_1-2" data-name="Layer 1"><path class="cls-1" d="M0,591.69c7.21-.61,14.41-1.7,21.62-1.73,34.94-.15,69.88-.39,104.81.21a167.64,167.64,0,0,1,36.5,4.37c43.33,10.49,65,41.29,61.57,86-2.35,30.65-15.92,50.6-45.43,66.1,2.55,1.22,4.7,2.3,6.88,3.29,22,10,37.49,26,44.85,49.33,7,22.31,6.86,44.7-1.14,66.62C218.9,895.32,195.72,911,166.8,919a117.28,117.28,0,0,1-29.42,4.36c-41.26.58-82.52.5-123.78.42-4.53,0-9.07-1.57-13.6-2.41ZM30.17,761.38V897.56a44.74,44.74,0,0,0,6.18.9c31.95.06,63.9.49,95.83-.17a117.56,117.56,0,0,0,32.31-5.24c22-6.92,36.09-22,40.45-45a97,97,0,0,0,0-35.74c-3.07-16.77-12.31-29.25-26.7-37.93-13.92-8.39-29.06-13-45.42-13.06-29.29,0-58.58.07-87.86.11Zm.14-26a29.76,29.76,0,0,0,4.32.67c33.62,0,67.24,0,100.85-.32,10.77-.1,21-3.35,30.56-8.25,18.26-9.39,28.81-24.22,30.1-45a113.57,113.57,0,0,0-.2-18.9c-2.18-20.83-13.24-35-33-42.23a98.47,98.47,0,0,0-34.16-6.12c-30.29,0-60.58,0-90.87,0a72,72,0,0,0-7.63.78Z"/><path class="cls-1" d="M300.73,811c-1.73,29.3,13.54,73.59,44.6,87.67,23.62,10.71,47.45,11.85,71.7,2.76,16.44-6.16,27.8-17.79,35-33.63,4.81-10.5,7.74-12.07,18.35-9.77,8,1.74,10,4.94,7.11,12.74-7.83,21-20.58,37.92-40.71,48.6-21.71,11.51-45,13.1-68.92,10.92C319,925.85,285.5,888.5,276.19,841c-5.45-27.83-5.13-55.67,1.9-83.17,5.71-22.31,16.23-42.08,33.14-58.19,16.38-15.62,36.24-23.3,58.32-25.38,19.76-1.85,39.11.07,57.55,8.47,24.64,11.23,39.44,30.87,48.53,55.51,7.25,19.64,9.2,40.14,9,60.9C484.55,809.62,483,811,472.13,811q-80.42.07-160.83,0ZM300,786.54c13.42,2,151,1.48,158.12-.51A120.18,120.18,0,0,0,451,745c-3.68-10.38-8.79-20.1-16.68-28.09-18.93-19.13-42.5-22.14-67.47-18.68-23.29,3.22-40.38,16.33-52.11,36.37C305.46,750.4,301.63,767.86,300,786.54Z"/><path class="cls-1" d="M767.36,890.71c-2.63,3-4.56,5.2-6.53,7.38-17.09,18.85-38.29,29-63.65,31.57-13.78,1.39-27.33,1.1-40.55-2.52-29.5-8.06-49.28-26.38-54.22-57.26-6.55-40.93,9.82-71.08,49.21-84.49,14.64-5,30.27-7.74,45.68-9.58,22.73-2.72,45.67-3.7,69.3-5.49.27-1.68,1.07-3.9.87-6-1.08-11.55-1.56-23.25-3.89-34.57-2.66-13-11.64-21.67-23.79-26.3-23.93-9.11-48.21-8.76-72.2-.27-14.35,5.07-23.83,15.31-28.26,30.09-2.26,7.54-3.61,8.3-11.34,8-15.5-.63-17.63-3.57-12.68-18,7.07-20.64,21.7-34.16,41.72-41.37a142.71,142.71,0,0,1,32-7.06c19.27-2.2,38.54-1.57,57.18,4.88,27.58,9.54,43,29.08,46.87,57.76a184.53,184.53,0,0,1,1.38,22.91q.59,76.39.91,152.8c.06,9.2-1,10.32-10,10.9a34.63,34.63,0,0,1-5,0c-7.76-.6-9.14-1.76-10.28-9.38-.54-3.61-.56-7.29-.76-10.95-.18-3.32-.24-6.65-.44-10C768.8,893.17,768.32,892.63,767.36,890.71Zm-.16-96.48c-1.83-.42-2.78-.89-3.68-.81-27.48,2.34-55,4.18-82.38,7.41-9.68,1.15-19.3,4.91-28.32,8.91-11.42,5.07-19.17,14.3-22.69,26.45a61.8,61.8,0,0,0,0,34.5c4.37,15.5,14,26.09,29.35,31.45,18.59,6.49,37.29,6.12,55.8.31,29.88-9.39,50-32.63,51.73-60.68C768,826.22,767.2,810.55,767.2,794.23Z"/><path class="cls-1" d="M1176.94,741.31V717.19c0-39,.12-77.9-.17-116.85,0-7,1.83-11.13,10.57-10.66,6.21.34,8.25,2.19,8.52,8.58.29,6.65.14,13.31.14,20q0,145.31,0,290.61c0,2,.09,4,0,6-.29,7.77-4.6,11-12.46,9.49-4.07-.78-6.69-2.74-6.61-7.28.06-2.66,0-5.33,0-8q0-67.9-.1-135.82V761.59c-8.33-2.39-171.54-3.34-198.15-1.27-.21,3.31-.63,6.81-.63,10.3q.13,69.4.38,138.81c0,1.67.09,3.33,0,5-.3,7.61-2.18,9.47-9.52,9.54-7.84.08-9.87-1.75-9.9-10q-.18-47.44-.12-94.88,0-106.85.06-213.71c0-2,0-4,0-6,.3-7.64,2.32-9.74,9.31-9.77s9.46,2.13,9.51,9.68c.2,32.62.17,65.24.22,97.87,0,11.65,0,23.3.07,34.95,0,2.9.35,5.81.56,9.17Z"/><path class="cls-1" d="M1663.13,809.87c1.71,26.89,6,52.13,22.52,73.66,14.21,18.57,33.68,28.06,56.51,29.63a127.75,127.75,0,0,0,35.61-2.45c23.84-5.23,39.43-20.87,48.53-43.28,3-7.36,6.19-9.13,12.77-7.57,6.21,1.48,8,4.64,5.82,11-6.47,18.45-17.4,33.63-33.88,44.39-21.56,14.08-45.6,17.59-70.69,15.3-14.62-1.33-28.8-4.66-41.85-11.94-24.56-13.73-40.06-34.65-48-61.2-10.7-36-10.87-72.37.38-108.17,13.67-43.45,48.29-73.3,97.86-73.61,12-.08,23.88.77,35.5,4.12,22.26,6.41,38.62,20.07,49.93,40.11,14,24.89,17.64,52,16.85,80-.23,8-1.9,9.32-10.7,9.35-32.94.11-65.88.08-98.82.12q-33.94,0-67.88.15C1670.38,809.44,1667.13,809.69,1663.13,809.87Zm168.8-18.34c-1-22.25-3.44-43-13.94-61.73a80.12,80.12,0,0,0-15.86-20.22c-25.69-23.09-72.29-23.67-101-1.93-27.68,21-34.59,51.08-37.64,83.88Z"/><path class="cls-1" d="M966.61,418.45l-59.06,60.18c-4-3.2-7.58-5.46-10.48-8.37q-37-37.15-73.8-74.53c-5.88-5.94-6.16-7.42,0-14,10.25-10.93,20.8-21.58,31.38-32.19q49-49.18,98.13-98.25c2.54-2.53,5.28-4.85,8.42-7.74,3.42,3.1,6.45,5.61,9.22,8.39q62,62.29,124,124.65c.24.24.47.48.71.71,8.21,8.35,8.28,8.84-.25,17.52-11.68,11.87-23.49,23.6-35.25,35.39-10.35,10.37-20.64,20.8-31.06,31.09-9.08,9-9.93,8.92-19.14-.34-11-11.1-22-22.3-33-33.41C973.61,424.8,970.64,422.21,966.61,418.45Zm-17.7-1.31c-7.45-7.7-14.85-15.27-22.17-22.91-5.08-5.31-5.33-6.81-.68-11.58,10.69-11,21.58-21.72,32.5-32.44,1.28-1.26,3.27-1.78,4.71-2.53,19.38,15.9,39.5,37.06,43.72,46.22l-18,19.32L1023,443.88l56-54.79L955.8,267.63,839,384.74l71.92,70.65Zm17-47.57-18,18.87,19.48,19.72,19.83-19.84Z"/><path class="cls-1" d="M1200,294.16c-5.28,5.58-9.49,10.25-13.92,14.69q-31.39,31.42-62.9,62.73c-13.94,13.82-13.13,10.12-23.22,0q-62-62.25-124.14-124.29c-2.77-2.77-5.34-5.75-7.8-8.42,3.64-7.08,129.29-133.83,141.25-142.62,3,2.52,6.54,5,9.5,7.93q33.51,33.53,66.85,67.24c7.86,7.93,7.69,9.47-.63,17.67-14.44,14.22-28.78,28.53-43.87,43.5,2.86,3.21,5.07,6,7.53,8.44,13.8,14,27.7,27.83,41.46,41.83C1193.32,286.1,1196.16,289.73,1200,294.16ZM1116.16,190.9l19.68,18.94,33.65-34.44-55.93-57.5L989.36,242.19,1107,361l71.55-71.42c-10.85-11.35-20.7-21.69-30.61-32-2-2.09-4.32-3.93-6.67-6-11.06,8-17.82,20.24-29.54,26.39-13.29-9.74-36.6-34.68-39.86-43.06C1086.2,220.85,1100.08,205.75,1116.16,190.9ZM1113.23,214c-7.3,6.72-13.76,12.65-20.63,19l20,19.46,18.69-19.62Z"/><path class="cls-1" d="M955.17,58.14c4.11-3.84,7.07-6.45,9.87-9.24,14.36-14.35,28.62-28.79,43-43.1,7.73-7.68,9.32-7.78,17.09,0q36.46,36.26,72.66,72.78c7.13,7.19,7.17,8.62-.43,16.31q-42.47,42.94-85.22,85.62Q991,201.69,969.9,222.92c-2.78,2.79-5.72,5.43-9.2,8.72-2.93-2.53-5.5-4.48-7.76-6.74q-60.62-60.81-121.19-121.67c-13.56-13.6-13.57-13.5,0-27Q861.4,46.59,891,16.85c1.88-1.88,3.72-3.82,5.7-5.59,5-4.44,6.13-4.76,10.91-.25,9.68,9.13,19,18.64,28.44,28C942.11,45.07,948.17,51.14,955.17,58.14ZM840.77,84.69c42.44,41.78,82.83,83.43,124.29,124.09L1081.89,90.44,1010.31,20.5l-36.6,36.84c2.17,2.43,3.38,3.94,4.74,5.29,6.12,6.11,12.43,12,18.41,18.29,5.19,5.43,5.11,7.46.11,12.52q-14.73,14.9-29.59,29.67c-6.4,6.39-8,6.45-14.62-.14q-15.56-15.51-30.85-31.27c-2.65-2.75-4.66-6.12-7.6-10l18.6-16.78-35.3-35.2ZM955.89,67.81l-19.56,19c7,7.11,13.14,13.39,19.73,20.09L975,88.09Z"/><path class="cls-1" d="M954.91,235.16c-7.27,11.75-134,138.37-142.63,143.08-5.51-5.13-11.47-10.32-17-15.92q-29.19-29.38-58.15-59c-8-8.18-7.91-9.46.49-17.66q18.57-18.13,37-36.41c1.87-1.85,3.5-4,5.93-6.71-3.92-4.26-7.56-8.49-11.48-12.44-13.6-13.7-27.38-27.22-40.9-41-7-7.13-6.9-8.64,0-15.5q35.73-35.58,71.62-71c3.24-3.19,7-5.84,12.77-10.59ZM743.35,186.37c13,13.15,25.24,26,38.13,38.45l28.79-28c14.6,13.86,28.31,26.66,40.36,39.91-.4,1.89-.36,2.3-.55,2.51-13,13.75-26,27.55-39.11,41.19-3.25,3.38-6.57,2-9.55-1-4.92-4.89-9.93-9.7-14-13.63l-35,33.7,59.4,55L933.11,233.06,816.27,114.44Zm67.81,37.44L791.74,242,811.35,261l18.44-18.26Z"/><path class="cls-1" d="M1472.67,802.06c-1.75,28.84-6.08,56.51-21.54,81.43-15.64,25.23-38.35,40.08-67.27,45.54a125.78,125.78,0,0,1-51.47-1c-32.6-7.32-55.32-26.62-69.17-56.48-11.73-25.29-15.28-52.26-13.45-79.87,1.48-22.38,5.75-44.23,16.8-64.16,17.9-32.29,45.64-49.31,82.23-51.71,18-1.18,36-.64,53.16,5.92,35.37,13.5,55.32,40.41,64.06,76.06C1469.56,772.23,1470.53,787.29,1472.67,802.06ZM1269.59,804c.34,4.95.57,11.95,1.36,18.88,1.58,13.93,4.23,27.69,10.12,40.5,14.72,32,39.75,49.12,75,50.38,38.4,1.38,68.08-14,83.17-49.87,18.58-44.21,17.4-88.9-4.89-132-8.8-17-23.53-27.82-41.37-34.14a110.24,110.24,0,0,0-21.24-5.07c-33.36-4.71-72.33,9.63-89.13,46.3C1273.44,759.05,1270,780.11,1269.59,804Z"/><path class="cls-1" d="M557.18,756.49V908.16c0,14.58-2.67,17-16.87,15.7-7.69-.72-9.27-2-9.5-9.83-.38-13-.39-25.94-.4-38.92q-.1-132.71-.13-265.42c0-3,0-6,.07-9,.37-9.32,1.9-11,11-11.94,12.19-1.33,15.71,1.69,15.72,14.05q.09,76.83,0,153.67Z"/><path class="cls-1" d="M1526.28,699.47c-10.1,0-19,.16-27.92-.05-6.4-.15-8.38-2.28-8.64-8.32s1.72-8.67,7.86-9c6-.32,12,0,18-.08,3.24,0,6.48-.27,10.79-.46,0-3.88,0-7.11,0-10.34,0-15.31.31-30.62,0-45.92-.14-7.16,4.23-9.47,10-9.32,6.79.19,9.21,2.36,9.32,10,.19,15,0,29.94,0,44.91v10.4c3.67.24,6.56.59,9.45.6q28.44.08,56.89,0c4.59,0,8.76.37,10.17,5.79,1.85,7.08-1.45,11.69-9,11.75-18.63.14-37.26,0-55.89,0H1546c-.19,4.34-.47,7.61-.47,10.88q0,71.37,0,142.73c0,5.65.21,11.32.64,16.95,2.34,30.24,22.57,46,52.52,40.85a124.75,124.75,0,0,0,16.49-3.8c4.46-1.41,7,0,8.73,3.92,2.16,5,1.4,9.21-2.4,11.41a30,30,0,0,1-7.38,2.92c-16,4.3-32.24,5.38-48.27.9-20.63-5.75-32.09-20.66-36.81-40.77a116.52,116.52,0,0,1-2.66-25.7c-.24-48.91-.12-97.82-.12-146.73Z"/><path class="cls-1" d="M1918.17,922.93c-3.17.7-5.72,1.68-8.3,1.74-6.88.18-9.58-2.48-10.08-9.39-.14-2-.07-4-.07-6q0-150.74.12-301.47c0-3.33-.12-6.67.14-10,.52-6.43,2.84-8.25,9.89-8.15,7.21.1,8.92,1.5,9,8.72.14,19.63.05,39.26,0,58.89q0,127.28-.12,254.55C1918.77,915.46,1918.39,919.06,1918.17,922.93Z"/><path class="cls-1" d="M975.5,1070.49v-28.25h9.9v50.55c-5.21,2.57-9.23,1.39-12.54-3.57-5.7-8.54-11.59-17-18.31-26.75-2.35,10.92.35,20.72-1.59,31h-9.44v-50.66c5.37-2.33,9.19-1,12.21,3.47,3.93,5.77,7.87,11.53,11.88,17.26,1.83,2.63,3.83,5.15,5.75,7.72Z"/><path class="cls-1" d="M735.05,1093.61V1041.9c9.64-.61,18.84-1.13,27.92.43,6.16,1.06,11,4.66,12.53,11.33s.47,12.56-5.7,16.67a25.24,25.24,0,0,0-2.65,2.4l9.66,19.3c-8.66,3.75-10.18,3.35-14-3.42-1.14-2-2.12-4.13-3.16-6.2-3.83-7.59-3.83-7.59-13.6-6.75-.35,5.68-.71,11.48-1.1,17.95Zm10.78-28.29c5.14-.42,9.36-.34,13.37-1.24,3.42-.77,6.12-3.7,4.93-7.25a9.49,9.49,0,0,0-6-5.29c-3.89-.8-8.1,0-12.28.07Z"/><path class="cls-1" d="M1199.06,1093.31c-8.94,1-8.94,1-14.56-9.55h-19.74c-1.49,3-3.06,6.19-4.9,9.9h-10.25a70.55,70.55,0,0,1,1.79-7c4.7-12.73,9.58-25.39,14.2-38.14,1.62-4.45,3.66-7.25,9.17-7.11,5.34.15,7.65,2.71,9.25,7.23,4.75,13.42,9.7,26.76,14.5,40.16A22.93,22.93,0,0,1,1199.06,1093.31ZM1168,1073h13.86c-2.25-6.32-3.27-12.27-8.12-17.44C1171.76,1061.4,1170.12,1066.37,1168,1073Z"/><path class="cls-1" d="M1601.42,1085.45c1.42,4.83,1.12,8.29-3.49,8.43-10.88.32-21.78.1-33.35.1v-52.27c11.15,0,21.69-.31,32.2.14,5.23.22,5.06,4.08,3.17,9.2h-24.59V1062h23.12c.2,3.45.32,5.61.52,9h-23.61v13.45Z"/><path class="cls-1" d="M564,1071.66H541.64v12.73h24.42c2.49,4.64,3.62,8.84-1.67,9.26-11.13.89-22.4,1.27-34-.41v-51.47c11.16,0,21.7-.17,32.22.19,1.59,0,4,2.36,4.43,4,.83,3.1-1.27,5-4.49,5-6.61.08-13.23,0-20.72,0-.18,3.78-.32,6.89-.54,11.51h18.4C565.34,1062.58,566.56,1065.35,564,1071.66Z"/><path class="cls-1" d="M1371.29,1052l-16-1.08c-.15-2.8-.28-5.27-.47-9,4.79-.11,9-.28,13.19-.3,8,0,16-.11,23.94.11,6.07.17,6.06.37,6.16,9.22l-15.48,1v41.66l-11.36.93Z"/><path class="cls-1" d="M321.81,1050.74c-1.6-8.35-1.41-9,4.5-9.13,11.9-.23,23.79-.07,36.73-.07.22,3.47.38,6.09.58,9.25l-15.8,1v41.33l-10.12.76c-2.72-14.1.2-27.72-1.84-41.84Z"/></g></g></svg>