<svg xmlns="http://www.w3.org/2000/svg" viewBox="0 0 1742.31 766.39"><defs><style>.cls-1{fill:#34ab64;}.cls-2{fill:#de8939;}.cls-3{fill:#231f20;}</style></defs><title>Dispar2</title><g id="Layer_2" data-name="Layer 2"><g id="Layer_1-2" data-name="Layer 1"><path class="cls-1" d="M108.8,341.57c11.06-7.26,21.49-15,32.72-21.33,28.54-16.11,59.25-24.66,92.23-23.47,28.9,1,54.59,10.21,74.43,32.11,5.52,6.09,9.66,13.43,14.57,20.38,4.41-3.94,9-8.46,14-12.41,34.61-27.37,74-40.88,118.14-40,21.59.45,41.85,6.14,59.48,19,21.07,15.42,32.71,37,35.8,62.35,2.53,20.75,2.94,41.83,3.12,62.77.43,50.32.11,100.64.27,151,0,5.44,1.16,10.89,1.88,16.32,1.43,10.75,7.15,18.24,16.84,23.2a12.14,12.14,0,0,1,5.43,6.9c1.37,4.88-.71,8.13-5.7,9.4a64,64,0,0,1-15.24,2.38c-23,.09-46,.06-68.92-.54-11.13-.29-16.12-6.16-16.14-17.39-.07-64.32.17-128.65-.28-193a196.33,196.33,0,0,0-4.3-41.06c-4.72-21.26-20.62-33.07-42.21-34.55-30.43-2.09-57.89,6.49-83.41,22.41-5.73,3.57-9.11,7.89-9.07,15.68.35,61.65.1,123.3.18,185,0,6.47.91,12.94,1.45,19.4,1,12,7.79,20,18,25.23,4.35,2.23,5.5,5.46,5.31,9.71s-3.23,6.36-6.71,7a104.45,104.45,0,0,1-18.27,2.29c-19.16.35-38.32.29-57.48.29a70.91,70.91,0,0,1-8.94-.83c-11.24-1.46-15.31-6-15.35-17.53-.07-19.66,0-39.33,0-59-.08-50.15,0-100.31-.48-150.46-.08-8.86-1.9-17.87-4.06-26.52-4.75-19.06-18.28-28.86-36.94-31.73-22.08-3.4-43.52,0-64,8.82-9.28,4-18.07,9.17-27,13.95-4.6,2.46-6.69,6.14-6.67,11.74.19,65.49.06,131,.22,196.46,0,14.43,4.45,26.93,18.31,34.2a22.14,22.14,0,0,1,4.43,3.23c5,4.54,3.6,12.33-2.84,14.38a45,45,0,0,1-13.2,2.43q-48,.28-95.91,0a24.86,24.86,0,0,1-10.64-2.25,12.68,12.68,0,0,1-5.78-6.64c-1.14-3.3.53-6.56,3.92-8.32,14.19-7.37,19.67-19.69,19.79-35,.24-29.15.48-58.3.52-87.45q.12-69.72,0-139.44c0-5.82-.38-11.65-.57-17.47-.47-14.09-7.38-23.79-20.11-29.54a30.18,30.18,0,0,1-3.11-1.57c-3.32-2.05-5.41-4.76-5.24-9a7.69,7.69,0,0,1,6.1-7.64,211.23,211.23,0,0,1,25.31-5.11,121.49,121.49,0,0,1,41.71,2.3c19.24,4.37,30.54,16.53,34.09,36.57C108.61,340.14,108.71,341,108.8,341.57Z"/><path class="cls-1" d="M841.06,615.2c-3.83,3.54-7.18,7-10.88,10C806,644.84,778,653.94,747.25,655.48c-20.27,1-40.27-.76-59.39-8.33-37.42-14.81-60.77-42.94-75.24-79.49C598,530.63,596.48,492.13,600,453.1c2.69-30.05,10.33-58.77,25.61-84.87,21.48-36.68,52.28-61.48,94.9-69.15,40.37-7.26,77.84-.17,111,25.12,2.06,1.57,4,3.24,6.87,5.53.83-4.34,1.57-7.68,2.11-11.06,2-13,5.67-17,18.72-17.38,14.46-.44,29-.08,43.43.52,10.57.43,14.33,4.39,14.49,15,.32,20.16.25,40.32.26,60.48q0,99,.08,198c0,7.82.54,15.66,1.23,23.45,1,11,8,17.8,19,19,3.48.37,7,.58,10.44,1.06,5,.68,6.84,3.14,6.73,8.16-.13,5.83-3,9.91-7.46,13.43-8.44,6.67-18.38,9.24-28.64,10.76-13.92,2.06-27.83,2.34-41.63-1.31-16.21-4.29-27.75-13.79-33.89-29.56C842.62,618.65,841.92,617.18,841.06,615.2Zm-5.63-139.27h0c0-26.83-.08-53.65.07-80.48,0-5.64-1.79-9.87-6.37-13.23-8.64-6.34-17.63-11.88-27.93-15.17-25.1-8-49.67-8.32-73.49,4.54-20.78,11.21-30.6,30.32-37.06,51.69-7.28,24.07-8.5,48.81-6.78,73.7,1.45,21.07,5.47,41.55,16.49,60.09,9.23,15.53,21.81,27.22,39.53,31.48,33.56,8.07,63.48-.8,90.41-21.51,3.72-2.86,5.28-6.32,5.24-11.13C835.34,529.25,835.43,502.59,835.43,475.93Z"/><path class="cls-1" d="M1383.15,612c-8,5.48-15.45,11.31-23.55,16.1-34.74,20.5-72,31.48-112.62,26.58-33.44-4-60.51-18.84-76.56-49.83-10.28-19.86-14.75-41.27-14.79-63.56-.11-57.16-.05-114.32-.14-171.48,0-7.48-.29-15-.85-22.43-.87-11.57-6.77-19.91-17.07-25.23a16.39,16.39,0,0,1-5.18-3.77c-3.89-4.75-1.31-12,5.3-13.65a118.4,118.4,0,0,1,21.64-3.45c21.11-1.19,42.27-2.27,63.29,1.35,10.48,1.8,14.76,6.15,15,16.71.42,19.66.19,39.33.2,59,0,43.66-.07,87.32.06,131,0,15.47.05,30.92,5.36,45.89,6.93,19.52,22.82,32,43.46,33.71,28.51,2.4,54-6.42,78.79-19.39,11.37-5.94,14.46-13.41,14.34-26-.7-70.48-.4-141-.28-211.47a127,127,0,0,1,1.76-19.83c1-6.34,5.61-10.39,11.73-10.5q28.44-.51,56.89.32c6.69.2,9.94,4.12,10.79,11a130.56,130.56,0,0,1,.77,15.95q.15,126.72.25,253.46a131,131,0,0,0,1.31,17.92c1.35,9.6,7,15.2,16.45,16.89,3.77.68,7.61.91,11.42,1.34,5.74.64,7.89,3.13,7.61,8.91-.25,5.19-2.89,9-6.83,12.22-8.34,6.71-18.2,9.47-28.49,11.08-12.76,2-25.56,2.39-38.28,0-20.76-4-34.85-15.62-40.82-36.31C1383.84,613.52,1383.42,612.66,1383.15,612Z"/><path class="cls-1" d="M1551.7,300.52c0-10.39-.15-20.5,0-30.61.24-13.49.75-27,1.11-40.45.15-5.61,3.27-8.85,8.33-10.54,16.57-5.53,33.11-11.16,49.75-16.47a71.58,71.58,0,0,1,13.23-2.43c5.58-.67,9.37,3.36,9.53,10.22.19,8.16,0,16.33,0,24.49q0,30.75,0,61.49c0,1.31.11,2.62.2,4.54h6c21.66,0,43.32,0,65,0,4.65,0,9.33.26,14,.74,4.82.51,7.52,3.44,7.56,8.34.09,11.5.16,23,0,34.49-.09,6-3.44,9-10.19,9.08-19.83.16-39.66.13-59.48.16h-22.88c-.12,1.72-.3,3.16-.3,4.59,0,59.82-.19,119.64.16,179.46.06,9.88,1.87,19.85,3.82,29.59,3.43,17,15.45,25.58,31.57,28.52,19.43,3.54,38.42.73,57-5.7,13.67-4.73,16.27-2.89,16.09,11.66a174.53,174.53,0,0,1-2,23.83c-1.15,7.57-6,12.69-12.79,16.22-14.29,7.45-29.74,10.83-45.5,12.47-24,2.49-47.93,2.67-71.33-4.48-27.12-8.28-45.32-25.39-53.21-53.19-5.37-18.89-5.53-38.15-5.57-57.45q-.18-90.47.05-180.94c0-3.43-1-4.68-4.53-4.65-13.67.13-27.33.1-41,0-10.25-.09-12.56-2.51-12.63-12.77-.07-9.49-.24-19-.09-28.49.14-8.65,2.92-11.32,11.56-11.39,13.66-.11,27.33-.07,41-.11C1547.85,300.76,1549.48,300.62,1551.7,300.52Z"/><path class="cls-1" d="M1078.63,392.18q0,97.72.07,195.46a115.73,115.73,0,0,0,1.72,19.84A30.46,30.46,0,0,0,1096,629.57c1.74,1,4,1.73,4.93,3.27,1.54,2.67,3.24,6,2.85,8.81-.3,2.21-3.28,4.86-5.66,5.81a34.35,34.35,0,0,1-12.18,2.4q-49.46.25-98.92-.07a25.44,25.44,0,0,1-10.51-2.71c-5.8-2.79-6.41-9.2-1.72-13.59a9.52,9.52,0,0,1,2.39-1.79c14.83-6.63,18.83-19.64,19-34.08.43-35.65.31-71.32.32-107q0-141.22-.08-282.45a121,121,0,0,0-.89-13.45c-1-9.06-5.79-15.79-13.56-20.42-3.29-2-6.59-3.92-10-5.64-3.59-1.81-6.74-4.55-5.32-8.45,1.22-3.35,4.05-7.5,7.1-8.52A140.72,140.72,0,0,1,999,146.06a128.38,128.38,0,0,1,44.69,1.71,76,76,0,0,1,14.6,5c11.9,5.25,18.75,14.75,19.24,27.54.87,22.79.94,45.62,1,68.43.13,47.83,0,95.65,0,143.47Z"/><path class="cls-2" d="M415.91,75.4c4.12-2.56,9-6.43,14.51-8.86,20.77-9.19,41.11-9.48,59.53,5.61,9.89,8.11,14.91,19.54,17.7,31.71,5.49,24,4.59,47.64-6.68,70.05-15.77,31.36-53.55,39.22-81,21.48-1.07-.69-2.16-1.37-3.7-2.34a24.39,24.39,0,0,0-.65,3.7c.07,14.66.29,29.31.23,44,0,6.1,2.1,10.51,7.64,13.42,1.38.73,3,3.33,2.65,4.44a7.07,7.07,0,0,1-4.32,4,40.55,40.55,0,0,1-9.93.74c-10.32,0-20.65-.11-31-.43a13,13,0,0,1-6.52-1.92c-2.65-1.77-3.35-4.91,0-6.34,8.4-3.59,8.38-10.79,8.43-18,.15-21.64.14-43.28.17-64.93.05-27.63,0-55.27.21-82.91.07-8.07-1.59-14.46-10.17-17.27-1-.34-2.42-2.42-2.18-3.29.43-1.54,1.74-3.63,3.09-4,10.4-2.81,21.16-4.81,31.23.16C409.31,66.46,412.08,71.35,415.91,75.4Zm0,57.84h-.2q0,12.49,0,25c0,11.51,1.22,13.44,11.85,17.9a30,30,0,0,0,7.14,2.11c14.72,2.13,28.6-.53,35.66-16.83,8.79-20.3,8.59-40.81-.49-61-3-6.71-8.66-10.94-15.85-12.69-12.44-3-23.83-.19-34,7.26a10.87,10.87,0,0,0-4,7.28C415.65,112.57,415.91,122.91,415.91,133.24Z"/><path class="cls-2" d="M96.2,188.71c-2.78,2-6.43,4.83-10.27,7.38C66.62,208.92,32.82,208.46,15,185.36,4.24,171.46,0,155.05,0,137.61s2.13-34.1,11.22-49.49c12.31-20.84,33.15-31,57.06-27a69.31,69.31,0,0,1,13.44,3.62c4.12,1.59,7.92,4,11.88,6.14.22-.2.64-.41.64-.62,0-16-.19-32-.15-48,0-5.66-2.41-9.34-7.48-11.8C85,9.71,83.94,7.57,82.64,6c1.58-1.34,3-3.43,4.78-3.9,10.83-2.82,21.83-3.09,32.45.62,6.14,2.15,7.65,8,7.67,13.93.06,18.49-.07,37-.06,55.48q0,50.22.11,100.45a56.82,56.82,0,0,0,.77,8.43c.63,4.07,2.95,6.53,7.19,7.1,3.13.43,6.62.65,7,4.9.44,4.47-2.44,6.95-6.11,8-9.74,2.87-19.87,4.55-29.14-.66C103.12,198.05,100.31,193.17,96.2,188.71Zm-1.74-57.83h.09V108.41c0-14.89-.18-15-14.23-20.07-14.65-5.29-33.42-2.52-40.85,16.85-7.78,20.3-7.61,40.69,2.48,60.38,3.77,7.37,10.53,10.92,18.45,12.23,10.54,1.75,20.12-.94,28.87-6.86a11.06,11.06,0,0,0,5.25-10.09C94.31,150.86,94.46,140.87,94.46,130.88Z"/><path class="cls-2" d="M633.28,188a44.88,44.88,0,0,0-4,3c-11.36,10.89-25.15,13.77-40.43,13.43C561.45,203.84,542.62,182,538,157c-4-21.79-3.5-43.61,6.81-63.91,15.76-31,44.94-39.14,74.65-28,4,1.5,7.22,5,10.74,7.48.48-.42.88-.58.95-.84,2.65-9.28,3-9.61,12.62-9.72,4.49,0,9,.43,13.48.32,5-.13,6.59,2.18,6.53,7-.33,27.64-.48,55.29-.6,82.94,0,7.65.12,15.32.4,23,.33,8.89,2.29,11.06,10.58,13.54,1.6.48,3.76,2.36,3.87,3.75.18,2-.7,4.94-2.19,6-2.59,1.88-5.93,2.84-9.07,3.81a24.22,24.22,0,0,1-6.43.81C648.53,203.53,637.2,202.82,633.28,188Zm-2.88-56.73h.05c0-10.15.25-20.3-.17-30.43a10.89,10.89,0,0,0-3.64-7.44c-9-6.77-19.53-8.25-30.35-6.15C588.52,88.79,581.62,93,578,100c-10.93,21.72-10.56,43.9-.39,65.79,3.53,7.6,10.4,11.61,18.58,12.66,11.45,1.46,21.78-1.93,30.67-9.08a10.65,10.65,0,0,0,3.34-7.19C630.61,151.92,630.4,141.6,630.4,131.29Z"/><path class="cls-2" d="M300.86,59.22c9.09,1.8,18.25,3.31,27.22,5.56a28.42,28.42,0,0,1,10,5.34,17.27,17.27,0,0,1,3.46,23.65c-2.56,3.71-6.31,5.13-10.44,3a93.85,93.85,0,0,1-11.84-7.32c-8.63-6.08-18-8.54-28.35-6-11.34,2.78-15,14.66-5.91,22,7.37,5.91,16.6,9.51,25,14.1,7.44,4,15.27,7.48,22.29,12.15,25.89,17.23,19.19,55.75-7.45,67.21-13.17,5.67-26.74,6.28-40.63,5.13-11.06-.92-21.82-3.07-31-9.89-7.7-5.74-9.3-15.5-4.37-23.54,2.3-3.74,5.58-5,9.36-3.34a91.1,91.1,0,0,1,11.79,6.43c8.39,5.13,17.17,9,27.27,7.88a34.92,34.92,0,0,0,10.94-2.94c10.49-5,12-17.18,2.76-24.34-4.8-3.74-10.51-6.31-15.84-9.36-11.08-6.33-22.51-12.13-33.19-19.08-15.78-10.26-19-38.37-3.57-52.21,9.27-8.33,20.09-12.11,32.19-13,3.32-.23,6.66,0,10,0Z"/><path class="cls-2" d="M744.74,78.66c2.08-2.22,3.68-3.85,5.18-5.55,9-10.28,20.83-13.17,33.84-12.33,7.53.48,10.86,4,10.76,11.59a67.64,67.64,0,0,1-1.89,13.22c-.74,3.4-3.17,4.74-6.79,4.2-4.27-.63-8.59-1-12.9-1.28C764.39,88,756.81,91,750.16,96c-2.07,1.56-4,4.81-4,7.31-.4,26.16-.48,52.32-.41,78.47,0,5.41,2.55,9.82,7.27,13,1.5,1,2.2,3.22,3.27,4.88-1.76,1-3.51,2.83-5.29,2.85-14,.21-28,.25-42-.12-2.14-.05-4.23-2.41-6.34-3.71,1.18-1.58,2.1-3.47,3.58-4.69,4-3.26,6.29-7.19,6.29-12.43q0-48.73,0-97.45c0-5.76-3.27-9-8-11.61-1.58-.87-3.88-3.24-3.57-4.18a7.92,7.92,0,0,1,4.39-4.51,46.63,46.63,0,0,1,25.13-1c6.06,1.34,10.06,4.85,12,10.77C743,75.09,743.77,76.5,744.74,78.66Z"/><path class="cls-2" d="M209.31,131c0,17.15.07,34.31-.05,51.46,0,5.48,2.33,9,7,11.65,1.68.94,2.62,3.22,3.9,4.89-2,1.21-4,3.4-6,3.45-13.31.32-26.64.2-40,.14a11.14,11.14,0,0,1-4.88-.83c-1.43-.73-3.27-2.18-3.42-3.49s1.15-3.79,2.4-4.28c5.84-2.3,7.27-6.94,7.29-12.41q.15-48.24.22-96.46c0-6.33-2.45-10.85-8.56-13.25-1.12-.44-2.69-2.19-2.51-3,.41-1.74,1.49-4.31,2.83-4.69,11.75-3.35,23.78-4.68,35.08,1,5.23,2.63,6.42,8.58,6.42,14.32q0,24.24-.05,48.46v3Z"/><path class="cls-3" d="M1553.43,732.53c-2.76,9.05-5.7,18-8.19,27.16-1.13,4.15-3.18,5.53-7.41,5.23s-6.73-1.55-7.53-6.16c-1.28-7.37-3.13-14.65-4.79-22a4.35,4.35,0,0,0-2.26-2.95c-.25,4.89-.55,9.77-.72,14.66-.12,3.66,0,7.33-.11,11-.06,2.85,1,6.24-4.08,6-5.35-.26-8-1.76-7.92-6.07.21-8,.77-16,1.31-24,.45-6.79,1.08-13.56,1.65-20.61,4.88,0,9.35-.24,13.78.07s5.83,4.15,6.55,7.76c1.48,7.51,2.58,15.1,3.86,22.65.18,1.07.47,2.13,1,4.47,2.91-9.93,5.6-18.56,8-27.28,1.89-7,2.37-7.63,9.31-7.84,11.91-.35,12.44.08,11.88,12.16-.53,11.14-1.41,22.27-2,33.42-.16,3.21-.62,5.51-4.72,5.28-5.66-.33-8.67-2.13-8.4-6.24.49-7.64,1.41-15.25,2.1-22.88.12-1.24,0-2.49,0-3.74Z"/><path class="cls-3" d="M967.34,748.08c2.34-7.57,4.81-15.1,7-22.71,3.08-10.74,7.65-13.31,18.55-10.29,3.69,1,3.74,3.93,3.61,6.75-.41,9.14-1,18.27-1.53,27.4-.21,3.65-.58,7.31-.49,11,.12,4.93-2.81,5.3-6.54,4.95s-7.16-1-6.71-6c.71-7.79,1.49-15.56,2.22-23.35a4.8,4.8,0,0,0-.76-3.21,16.84,16.84,0,0,0-1.33,2.56c-2.6,8.07-5.23,16.13-7.66,24.24-.9,3-1.35,5.76-5.61,5.44s-8-.42-9.07-5.68c-1.42-7-3.09-13.95-4.69-20.91-.28-1.23-.76-2.41-1.15-3.61l-1.87.12c0,8.26,0,16.52,0,24.78,0,3,.39,6.22-4.37,6-5.17-.21-8.23-2.37-8-6.79.79-13.62,1.81-27.23,2.83-40.83a4.27,4.27,0,0,1,1.38-3c5.2-3.42,17,.75,18.52,6.82,1.68,6.58,2.67,13.34,3.92,20,.38,2,.63,4.13.94,6.19Z"/><path class="cls-3" d="M411.66,731.38c-1.68,9.12-3.34,18.24-5.06,27.36-.64,3.33-1.19,6.56-6,6.34s-9.57.86-11.05-5.57c-2.95-12.8-6.15-25.54-8.9-38.38-.42-2,.28-5.46,1.64-6.28,3.43-2.08,9.66-.21,11,2.83a32,32,0,0,1,2.17,8.14c1.18,8.06,2.14,16.15,3.95,24.35l3-20.46c.34-2.31.49-4.66,1.05-6.91,1-3.87.89-8.53,7.1-8.33,7.95.26,10.5,1.81,11.37,8.81,1.12,9,1.9,18,4,27.11q2.2-11.85,4.4-23.7c.39-2.13.7-4.27,1.14-6.39,1.21-5.78,2.32-6.57,7.67-5.58,4.58.84,6.39,3.34,5.05,8.44-3.31,12.55-7,25-10.51,37.49-.95,3.43-3,5-6.55,4.55a19.93,19.93,0,0,0-4.48-.32c-4.08.39-5.63-1.74-6.11-5.43-1-7.59-2.15-15.16-3.25-22.73-.26-1.78-.57-3.55-.85-5.32Z"/><path class="cls-3" d="M112.68,744c0-7.43-.16-14.87.07-22.3.1-3.06-1.52-7.52,4.54-7.3s8.5,2.3,8.22,8.06c-.65,13.13-1.54,26.25-2.28,39.38-.15,2.74-1.49,3.65-4.12,3.77-7.13.33-9.54-1-12.39-7.45-2.76-6.23-5.46-12.49-8.25-18.71a48.7,48.7,0,0,0-2.72-4.39c0,8.6-.12,15.66,0,22.72.16,7.48-2,9.41-8.78,6.79-1.64-.64-3.67-3.27-3.58-4.89.75-14.12,1.86-28.23,3.12-42.31.1-1.11,2.11-2.84,3.33-2.93,7.76-.56,9.92.91,12.93,8.1s6,14.43,9,21.65Z"/><path class="cls-3" d="M851.85,736.77c0,7.75,0,15.5,0,23.26,0,2.62.93,5.45-3.55,5.35-6.16-.15-9-1.72-8.84-6.1.23-7.32.74-14.63,1.21-21.93.39-6.15,1-12.28,1.29-18.43.13-3.08,1-4.39,4.36-4.36,7.7.07,9.34,1,12.4,8.19a156.54,156.54,0,0,0,10.69,21.41c0-8.06,0-16.12,0-24.18,0-2.63-1-5.94,3.79-5.84,5.5.13,8.24,1.92,8.25,6.41,0,4.83-.28,9.66-.56,14.48-.44,7.64-.85,15.29-1.54,22.92-.23,2.59,1.77,6.58-3,7.21-5.6.75-10.49-.37-12.28-4.93-2.85-7.26-6.58-14.17-10-21.21-.42-.87-1-1.67-1.49-2.5Z"/><path class="cls-3" d="M933.33,735.92c-.78,4.4-1.14,8.93-2.4,13.18-4.1,13.74-17.29,20.28-30.84,15.63-6.9-2.37-11.23-6.91-12.22-14.29-1.3-9.66-.26-19,4.78-27.47,1.59-2.66,4.62-4.81,7.46-6.32a27,27,0,0,1,22.68-1.3c6.08,2.25,8.75,7.38,9.62,13.51.33,2.3.29,4.65.41,7Zm-12.69,1.69-.6-.18c-.1-1-.14-2-.3-3-.62-4-1.08-8.18-6.21-9a9.12,9.12,0,0,0-10.64,6.93,55.57,55.57,0,0,0-1.45,15.1c0,3.45,2,6.51,5.89,7,4.08.56,7.9-.6,9.59-4.64S919.43,741.71,920.64,737.61Z"/><path class="cls-3" d="M1399.73,742.5c2.17-6.7,3.3-14,6.76-20,5-8.51,21-11.63,29.79-7,4.8,2.51,8.07,6.32,9.17,11.76a41.08,41.08,0,0,1-1.63,23.07c-4.53,12.06-14.24,17.49-27.34,15.26-10.49-1.79-15.6-9.29-15.5-22.71Zm13.51-1.33,1,.34c0,1.16-.07,2.33,0,3.49.45,5.88,2.7,8.86,7,9.43s8.71-2,10-7.19a43.43,43.43,0,0,0,1.13-14.66c-.27-2.51-2.86-5.78-5.23-6.83a7.41,7.41,0,0,0-9.45,3.59C1415.68,733,1414.68,737.21,1413.24,741.17Z"/><path class="cls-3" d="M833.68,735.57c-.33,9.64-1.57,18.94-9.85,25.51-9.35,7.44-25,6.3-31.59-2.25-7.55-9.82-4.08-33.37,6-40.54,8-5.67,17-6.08,25.66-2.73C832.86,719,833.84,727.2,833.68,735.57Zm-12.32,2.21-.89-.28c0-.67,0-1.33,0-2-.19-6.54-2.21-9.73-6.48-10.21a10,10,0,0,0-11,8.11,44.46,44.46,0,0,0-.7,14.67c.34,2.42,3.25,5.52,5.67,6.36a7.33,7.33,0,0,0,9.19-4.1C819,746.32,820,742,821.36,737.78Z"/><path class="cls-3" d="M31.72,713.94c1.5,0,3-.05,4.5,0,12.68.46,18.68,6.32,18.66,19A68.78,68.78,0,0,1,53,748.71c-2.51,10.55-10.07,15.85-20.42,16.87a57.28,57.28,0,0,1-15.32-1c-1.55-.27-3.87-3.13-3.79-4.7.74-14.12,1.87-28.23,3.12-42.32.1-1.06,2-2.6,3.19-2.8,3.93-.63,7.94-.74,11.93-1Zm-5.67,40.53c6.47.06,11.67-.75,13.91-6.37,2.68-6.74,4.22-14.08-.43-20.39-1.44-2-6-1.73-9.16-2.18-.58-.09-1.93,1.32-2,2.13C27.5,736.37,26.83,745.09,26.05,754.47Z"/><path class="cls-3" d="M344.2,746.69c2.86,4,5.23,7.58,7.93,10.92,1.79,2.21,1.43,3.85-.47,5.56-5.23,4.7-12,3.24-14.59-3.26-1.31-3.23-2.2-6.64-3.6-9.82-.5-1.14-1.92-1.87-2.93-2.78-.66,1.18-1.75,2.31-1.91,3.56a70.49,70.49,0,0,0-.35,8.48c0,3.18-.15,6.07-4.61,6-5.84-.07-8.78-1.94-8.56-6.51.41-8.8,1.16-17.59,1.82-26.38.34-4.65.78-9.28,1.17-13.92.24-2.77,1.58-4.15,4.51-4.12,5.32.06,10.66-.35,16-.07,10.5.57,16.23,7.86,14.57,18.28A19.63,19.63,0,0,1,344.2,746.69ZM329.69,732.2c.46,2.16-1.81,6.1,3.44,6.12,4.52,0,8-3.11,8.07-7.52s-2.68-5.48-6.44-5.83C329.05,724.44,330,728.51,329.69,732.2Z"/><path class="cls-3" d="M1114.34,746.53c2,3,3.94,6.1,6.13,9s4.13,5.79-.12,8.71c-3.85,2.63-9.31,2.19-11.45-1.54s-3.52-7.88-5.48-11.73c-.64-1.28-2-2.18-3.06-3.25-.69,1.3-1.8,2.54-2,3.91a78.61,78.61,0,0,0-.27,8c-.13,3.11-.21,6.09-4.83,5.68-5.6-.5-8.19-2.3-8-6.73.44-9.16,1.1-18.3,1.71-27.44.26-3.82.56-7.64.93-11.45.33-3.41,1.86-5.49,5.74-5.39,5.48.14,11-.3,16.46,0,6.26.38,11.22,4.51,12.23,10.62,1.24,7.48.51,14.69-6.3,19.79A18.1,18.1,0,0,0,1114.34,746.53Zm-15.68-9c5.38,1.11,9.41,1.43,11.06-2.65,1-2.39.81-6.23-.57-8.23-1-1.44-6.73-1.83-7.06-1.14C1100.4,729.05,1099.77,733.13,1098.66,737.48Z"/><path class="cls-3" d="M1387.3,746.61c2,2.91,4,5.91,6.08,8.9,1.79,2.61,4.26,5.12.38,8s-8.88,3.22-11.23-.13-3.8-7.7-5.9-11.45c-.91-1.64-2.48-2.92-3.75-4.36-.73,1.67-1.8,3.27-2.13,5a51.89,51.89,0,0,0-.37,7c-.16,3.06-.05,6.15-4.7,5.86-5.06-.33-7.84-2.22-7.81-6.44s.46-8.65.76-13c.59-8.3,1.37-16.6,1.76-24.91.21-4.38,1.5-6.91,6.43-6.71,5.48.21,11-.41,16.46.07,7.42.65,11.9,6,12.15,13.41C1395.71,736.18,1394.71,738.52,1387.3,746.61Zm-14.52-9.18c7.57.89,10.53-.82,10.73-6,.19-4.88-2.1-6.9-7.49-6.63C1372.13,725,1371.48,727.41,1372.78,737.43Z"/><path class="cls-3" d="M652.73,738a13,13,0,0,1,.49-19.26c6.43-5.73,14-6.46,22-3.89,4.76,1.52,6.87,5.62,5.62,9.78-.8,2.7-4.62,4.51-7.54,7.14-1.36-2.35-1.74-3.89-2.68-4.44-1.93-1.12-4.69-2.86-6.13-2.2-1.78.8-3.42,3.78-3.45,5.85,0,1.36,2.83,3.86,4.51,4,6.46.4,13-.14,19.46.09,1.65.06,4.43,1.48,4.62,2.61.38,2.3.77,5.37-3.06,6.34-1.29.32-2.77,2.23-3.08,3.65-3.22,14.5-13.81,21.22-28.26,17.67-5.29-1.3-9-4.58-10.48-9.72a13,13,0,0,1,3.74-13.72C649.78,740.62,651.15,739.42,652.73,738Zm19.47,5.57c-3.88.28-7.49.25-11,.86s-4.56,3.83-3.45,6.51c.79,1.91,3.5,4.09,5.51,4.25C669.1,755.68,672,751.86,672.2,743.57Z"/><path class="cls-3" d="M760.25,744.76c-.56,4.85-1.2,9.69-1.64,14.56-.29,3.13.39,6.6-4.72,6.25-5.71-.39-8.5-2.72-8.18-7.66.72-11.14,1.54-22.26,2.33-33.39a20.51,20.51,0,0,0,.24-3.48c-.52-5,1.48-6.76,6.57-6.49s6.13,2.86,5.91,7.16c-.18,3.48,0,7,0,11.24,4.56-5.39,8.75-10.38,13-15.35,2.17-2.55,4.21-5.63,8.08-2.18,3.45,3.08,4,7.15,1,10.5a53.1,53.1,0,0,1-7.82,7.69c-3.59,2.64-3.86,5-1.37,8.59,3.06,4.35,5.75,9,8.55,13.5,1.41,2.29,5.1,4.22,1.42,7.5-3.37,3-9.09,3.58-11.89.65a29.19,29.19,0,0,1-5-7.91c-1.71-3.67-2.91-7.57-4.33-11.37Z"/><path class="cls-3" d="M1056.39,733.41c4.43-5.52,8.3-10.46,12.3-15.28,2-2.38,3.89-5.54,7.72-2.74a7.16,7.16,0,0,1,1.52,10.5c-3.43,4.05-7.3,7.72-11.56,12.17,3.48,5.39,7.26,11.18,11,17,1.69,2.67,4.8,5.29.66,8.49-3.84,3-9.17,3.21-11.5-.45-3.08-4.84-5.14-10.33-7.63-15.54l-1.86-3.91c-1.13,2.58-2.11,4-2.31,5.47-.5,3.62-.74,7.28-.89,10.94-.14,3.14-.59,5.79-4.71,5.2-3.74-.54-8.22-.26-8-6,.28-6.65.76-13.29,1.19-19.93.45-6.81,1-13.61,1.39-20.42.2-3,1-5.25,4.73-4.8,3.56.43,7.82-.2,7.93,5.28C1056.46,723.73,1056.39,728,1056.39,733.41Z"/><path class="cls-3" d="M1665.31,725c-.39,7.31-.84,14.61-1.14,21.93-.14,3.58-.1,7.34,4.74,7.9s7.06-2.57,7.6-6.74c.88-6.75,1.34-13.55,1.92-20.33.19-2.16.13-4.34.36-6.48.34-3.3-.47-7.26,5.26-6.82,6.17.48,7.66,1.16,7.28,7.35-.6,9.77-1.21,19.64-3.15,29.2-3,14.73-22.36,20.53-33.21,10.08a15.34,15.34,0,0,1-4.11-10.21c.17-11,1.32-21.89,2.1-32.83.21-3,2.06-3.82,4.79-3.64,3.17.21,6.66-.15,7.41,4.13a53.23,53.23,0,0,1,.34,6.46Z"/><path class="cls-3" d="M549.41,762c-.91,1.08-1.56,2.55-2.62,3-4.94,2-11.56-1.13-12.62-6.23-.78-3.78-2.79-4.4-5.94-4.1s-7.15-1.18-8.18,4.07c-.65,3.27-1.16,7-6.26,6.79-6.81-.28-9.32-3.1-7-9.54,4.33-12,9.17-23.84,13.56-35.83,1.53-4.17,3.86-5.77,8.42-5.64,8,.23,8.32-.17,10.42,7.46C542.8,735.1,546,748.35,549.41,762ZM529.34,728.2l-1.25-.2-4.17,15.41h7.48C530.67,738,530,733.1,529.34,728.2Z"/><path class="cls-3" d="M152.09,714.72c5-1.15,7.76,1.14,8.9,5.71,3.41,13.71,6.81,27.42,10.06,41.17a3.68,3.68,0,0,1-1.34,3.22c-3.91,2.18-12.09-1-12.78-5.38-.72-4.58-3-5-6.75-4.93-4.44,0-7.8,0-8.43,6-.49,4.64-4.62,6-9.74,4.35-4.46-1.39-4.36-4.9-3.15-8.11,4.85-12.91,9.77-25.8,15.26-38.44,1-2.29,4.8-3.36,7.3-5Zm2,28.87c-.9-5.44-1.71-10.4-2.53-15.36l-1.13-.05-4.21,15.41Z"/><path class="cls-3" d="M304.78,764.88c-4.68.25-8.28-1.59-8.9-7.61-.11-1-2.13-2.49-3.29-2.53-9.34-.26-10.89-.63-12.08,7.65-.67,4.62-4.77,3.48-7.12,2.66-2.13-.73-4.64-3.3-5-5.4-.44-2.51,1-5.46,2-8.09,4-10.91,8.33-21.71,12.17-32.67,2-5.63,6.36-4.12,10.3-4.41,3.77-.28,6.55.93,7.57,4.83,2,7.55,3.94,15.09,5.81,22.66,1.39,5.64,2.59,11.32,4,17S311.08,765.15,304.78,764.88Zm-19-21.48h7.84c-.85-5.36-1.63-10.26-2.41-15.16l-1.15-.1C288.7,733.06,287.32,738,285.8,743.4Z"/><path class="cls-3" d="M609.93,754.71a44.5,44.5,0,0,1-5.42,0c-4.82-.6-7.71.63-8.48,6.17-.62,4.52-3.47,5.31-8.89,4-4.23-1-4.83-3.64-3.54-7.13,4.79-12.94,9.78-25.81,14.49-38.78,2.33-6.41,7.6-3.68,11.83-4.25,3.86-.53,4.9,2.43,5.61,5.11,2.74,10.28,5.25,20.62,7.84,30.94a49.22,49.22,0,0,1,1.21,5.35c.41,3.06,4,7-1.26,8.82a9.56,9.56,0,0,1-12.05-6C610.84,757.63,610.47,756.37,609.93,754.71Zm-1.42-11.19c-.86-5.35-1.65-10.24-2.44-15.12l-1.31-.09c-1.34,4.94-2.68,9.88-4.13,15.21Z"/><path class="cls-3" d="M1597.79,754.59a35.73,35.73,0,0,1-4.65,0c-5.12-.7-8.3.39-9,6.53-.58,5.46-5.17,4.37-9,3.78-4.18-.63-4.81-3.6-3.73-6.64,4.84-13.58,9.77-27.13,15.09-40.52,2-5.13,7.25-3.31,11.06-3a7.66,7.66,0,0,1,5.36,4.54c3.84,13.92,7.16,28,10.7,42,.78,3.06-.71,3.82-3.35,4C1602.81,765.6,1600.24,763.56,1597.79,754.59Zm-1.19-11c-.86-5.36-1.66-10.28-2.45-15.21l-1.23-.06c-1.47,5-2.93,10-4.48,15.27Z"/><path class="cls-3" d="M1188.85,754.62a40.78,40.78,0,0,1-5.21,0c-5.14-.72-8.27.78-8.6,6.55-.28,4.81-3.86,4.74-7.34,4.12-3.63-.66-6.77-2.41-5.25-6.69,4.85-13.75,9.85-27.46,15.2-41,2-5,7-2.87,10.64-2.64a7.7,7.7,0,0,1,5.41,3.86,75.22,75.22,0,0,1,3.93,12.82c2.28,9.18,4.33,18.42,6.6,27.61,1,4,0,5.89-4.5,5.79C1193,764.83,1191.61,763.78,1188.85,754.62Zm-9.22-11.08h7.95c-.91-5.3-1.72-10.09-2.54-14.88l-1.1.07Z"/><path class="cls-3" d="M234,714.47c8.08,0,15.87-.35,23.61.1,6.33.37,9.56,4.78,10.89,10.68,3.28,14.6-5.46,25.59-20.28,25.51h-4.41c-.33,3.27-.7,6.35-.95,9.43s-.41,5.79-4.73,5.18c-3.94-.55-8-.74-7.65-6.29.33-5.31.76-10.61,1.18-15.92C232.44,733.91,233.21,724.65,234,714.47Zm10.45,24.77c8.14,1.78,12.08-1.18,11.93-8.4-.09-4.06-2.57-5.85-7.39-6.19-4.57-.32-4.06,2.6-4.13,5.43S244.64,736,244.49,739.24Z"/><path class="cls-3" d="M191.15,766.37c-3.55-.81-7.12-1.54-10.64-2.44-3.94-1-5.84-3.92-5.83-7.72,0-2.12,1.16-4.24,1.79-6.37,1.86.64,3.69,1.39,5.58,1.88A78,78,0,0,0,192.41,754c.91.11,2.87-1.65,2.89-2.59a5.2,5.2,0,0,0-2.15-3.82,48.15,48.15,0,0,0-7.28-3.25c-5.67-2.35-9.45-6.09-9.69-12.62-.25-7,2.66-12.47,8.7-15.7a20.74,20.74,0,0,1,20.16.07c5.16,2.7,6.15,10.27,2.06,14-3.48,3.21-6.79,2.71-8.36-1.68-1.38-3.83-3.83-4.51-7-3a6.39,6.39,0,0,0-3.31,3.87c-.2,1.12,1.35,3,2.58,3.83a27.91,27.91,0,0,0,6.27,3c10.38,3.93,12.45,10.83,11.22,18.64C207.41,761.89,201,765.8,191.15,766.37Z"/><path class="cls-3" d="M472.58,748.49a52.1,52.1,0,0,0,5,3.63c1.85,1,3.92,2.37,5.86,2.31,2.17-.06,4.3-1.54,6.45-2.41-1.29-1.83-2.34-3.92-3.94-5.41-1.13-1.06-3-1.34-4.55-1.94-7.14-2.77-10.8-7.9-10.44-14.67.42-7.93,4.44-13.8,11.84-15.27a34.22,34.22,0,0,1,14.18.18c6.79,1.61,9.24,10.86,4.57,15-3.93,3.51-6.64,3.09-8.5-1.73-1.5-3.9-4.05-4.1-7.08-2.52-3.6,1.87-3.65,5.21-.12,7.27,3,1.76,6.28,3,9.35,4.69a15,15,0,0,1,7.82,16.31c-1.5,7.15-6,11.42-13.55,11.61-4.55.12-9.17-.88-13.68-1.79C468.31,762.24,467.52,754,472.58,748.49Z"/><path class="cls-3" d="M1328.45,750.72c0,3.17,0,5.95,0,8.72.08,3.45-.8,5.9-5,5.69-4-.2-7.58-.87-7.6-5.84,0-4.14.39-8.3.69-12.44.64-9,1.47-17.91,1.93-26.87.21-4,1.69-5.73,5.72-5.51,6.9.38,13.87.2,20.71,1.08,2.36.31,5.13,2.61,6.47,4.77,4,6.43,3.44,13.65.56,20.12-2.78,6.27-8.69,9.41-15.53,10.24A72.31,72.31,0,0,1,1328.45,750.72Zm1.71-18.27H1330c-.08,1-.2,2-.25,3-.24,4.84,1,5.85,5.76,4.88,5.21-1.06,7.33-6.46,5.22-12.27-1.53-4.22-5-3.57-7.82-3.1-1.13.19-2,2.9-2.69,4.58C1329.87,730.34,1330.16,731.46,1330.16,732.45Z"/><path class="cls-3" d="M1449.16,714.61c3.25,0,5.55.06,7.83,0,4.38-.15,6.87,1.83,7.52,6.22,1.29,8.71,2.66,17.41,4,26.11a7.77,7.77,0,0,0,1.63,4c.69-1.86,1.53-3.68,2-5.59,2.35-8.83,4.55-17.7,6.92-26.53,1.14-4.26,3.62-5.29,8.89-4,4,1,5.16,3.68,3.85,7.2-5,13.53-10,27.07-15.49,40.43-1.8,4.41-6.52,2.51-9.85,2.29a8.64,8.64,0,0,1-6.11-3.76c-1.76-3.29-2.46-7.19-3.31-10.9C1454.44,738.63,1451.94,727.13,1449.16,714.61Z"/><path class="cls-2" d="M190.58.57c10.42,0,19.53,8.37,19.68,18.06C210.43,29.48,202.05,37.89,191,38c-10.8.08-19.32-7.83-19.37-18C171.59,8.48,179.3.57,190.58.57Z"/><path class="cls-3" d="M724.67,724.58v9.85h12.9c-1.67,4-2.12,7.89-4.24,9.28-2.43,1.59-6.35.92-9.94,1.27v9.91c3.94,0,7.71,0,11.49,0,2.26,0,5.08-.53,5.2,3,.11,3.08-.32,6.79-4,7a166.71,166.71,0,0,1-22.35-.1c-1.27-.09-3.37-3.45-3.3-5.24.49-14.13,1.34-28.25,2.36-42.35.07-1,2.38-2.47,3.7-2.52,6.48-.28,13-.19,19.46-.14,2.24,0,5-.53,4.74,3.29-.19,3.37-.55,6.54-4.9,6.69C732.31,724.68,728.84,724.58,724.67,724.58Z"/><path class="cls-3" d="M1142.88,754.89a109.82,109.82,0,0,1,11.67.13c1.7.18,4.28,1.43,4.66,2.72.8,2.73.26,6.47-3.25,6.72a177.91,177.91,0,0,1-23.32.06c-1.16-.07-3.08-3.75-3-5.68.5-11,1.44-21.9,2.37-32.83,1-11.61,1.06-11.61,12.74-11.58,3.49,0,7-.11,10.48.07,2.07.1,5.21-1,5,2.88-.13,3.2-.43,6.63-4.66,7.09a68.47,68.47,0,0,1-8.48.18c-4.48-.09-3.15,3.33-3.49,5.68-.37,2.54.37,4.22,3.42,4.06,2.64-.13,5.28,0,7.83,0,1.74,6.83.28,9.81-4.73,10.2C1141.8,745.21,1141.8,745.21,1142.88,754.89Z"/><path class="cls-3" d="M1282.11,734.81h11.72c1.06,8.78.27,9.42-12.42,10.15-.34,5-.87,10.07-1,15.15-.09,4.38-2.19,6.12-6.26,5.39-3.5-.63-7.41-.75-6.89-6.36,1.27-13.56,2.26-27.14,3.17-40.73.22-3.32,1.76-4.21,4.76-4.12,6,.16,12,.07,17.94.24,2.28.06,5.43-.84,5.23,3.32-.16,3.41-1,6.36-5,6.81a19.23,19.23,0,0,1-5,0c-4.72-.74-6.84,1-6.28,5.88C1282.22,731.68,1282.11,732.83,1282.11,734.81Z"/><path class="cls-3" d="M574.5,724.4c-1,12.4-2,24-2.94,35.57-.22,2.87.28,5.8-4.23,5.54-5.73-.33-8.79-2.35-8.52-6.72.57-9.29,1.32-18.57,2.18-27.84.59-6.3.7-6.31-5.84-6.34h-5.78c-.4-8.75.71-10.08,8.37-10.15,8.31-.07,16.63,0,24.94,0,2.23,0,5.07-.41,4.74,3.33-.26,3-.25,6.3-4.45,6.54C580.34,724.52,577.7,724.4,574.5,724.4Z"/><path class="cls-3" d="M1216.68,724.85c-2.91,0-5.11.35-7.13-.11-1.71-.39-4.69-2.07-4.57-2.56.67-2.76-.46-7.29,4.07-7.41,11.25-.29,22.5-.1,33.68-.1.84,8.38,0,9.69-7.54,9.52-4.46-.1-5.58,1.52-5.74,5.71-.39,10-1.35,19.88-2,29.83-.21,3.43-1,5.72-5.21,5.34-5.39-.48-8-2.16-7.74-6.2.44-8.45,1.13-16.9,1.7-25.35C1216.41,730.89,1216.51,728.26,1216.68,724.85Z"/><path class="cls-3" d="M1695.53,724.18c1.73-9.79,1.73-9.8,10.5-9.79q11.49,0,23,.09c2.12,0,4.63-.29,4.47,3.1-.15,3,.3,6.29-4,6.83-.17,0-.33,0-.5.05-8.7,1.22-8.69,1.22-9.19,10.15q-.69,12.23-1.47,24.43c-.21,3.3.09,7-5.16,6.52s-7.77-2.74-7.45-7.82c.58-9.14,1-18.31,2.18-27.38.63-4.81-1-5.9-5.23-5.67A60.78,60.78,0,0,1,1695.53,724.18Z"/><path class="cls-3" d="M1644.88,754.89c2,8.57,1.07,10.09-6.72,10.34-5,.16-10-.13-15-.25-3.29-.08-4.85-1.77-4.62-5.09,1-14.28,1.87-28.58,3.07-42.84.09-1.1,2.27-2.83,3.51-2.86,3.24-.1,7-.2,8.12,4a16.17,16.17,0,0,1,.26,5c-.46,8.81-.81,17.63-1.58,26.42-.34,3.9.66,5.62,4.74,5.3C1639.45,754.71,1642.26,754.89,1644.88,754.89Z"/><path class="cls-3" d="M374.46,725c-.86,12-1.77,23.89-2.56,35.85-.21,3.34-1.65,5-5,4.43s-8.19-.3-7.89-5.57c.77-14,1.89-27.91,3.16-41.84.11-1.23,2.34-3.18,3.62-3.21,3.27-.08,7.48-1,8.52,3.88a44.56,44.56,0,0,1,.44,6.46Z"/><path class="cls-3" d="M448.42,753.29c1-10.64,2.08-22.21,3-33.79.28-3.48,1.12-5.65,5.32-5.21s7.2,1.71,7,6.52c-.46,9.29-1,18.57-1.6,27.85-.23,3.81-.72,7.61-.78,11.43-.06,4.25-2.28,5.46-6.08,5-3.58-.45-7.16-.83-6.85-5.86C448.51,757.56,448.42,755.9,448.42,753.29Z"/><path class="cls-3" d="M76.23,722.43c-1,13.49-2.06,26.08-3,38.68-.24,3.2-1.93,4.34-4.95,4-3.53-.42-7.88-.78-7.68-5.3.65-14.27,1.86-28.52,3.1-42.76.08-1,2.17-2.48,3.35-2.51,3.17-.08,7-.8,8.45,3.4A21.76,21.76,0,0,1,76.23,722.43Z"/><path class="cls-3" d="M1015.68,765.29c-3.06-.22-5.55-.09-7.87-.66-2.93-.72-4.76-2.36-4.43-6,1.15-12.91,2-25.84,3-38.77.19-2.46,0-5.22,3.7-5.32s7.09.24,8.43,4.46a6.66,6.66,0,0,1,.34,2.46C1017.8,735.8,1016.76,750.2,1015.68,765.29Z"/><path class="cls-3" d="M1260.27,722.06c-1,13.77-2,26.53-2.82,39.3-.23,3.42-2.07,4.08-5,3.81-5.22-.47-8-2.54-7.72-6.43.62-9.62,1.41-19.23,2.13-28.84.24-3.31.44-6.63.72-9.94.2-2.33-.7-5.46,3.25-5.47,3.79,0,8-.55,9.19,4.62A14.58,14.58,0,0,1,1260.27,722.06Z"/></g></g></svg>