<svg xmlns="http://www.w3.org/2000/svg" viewBox="0 0 1322.69 149.94"><defs><style>.cls-1{fill:#e38425;}</style></defs><title>halmaheranesia</title><g id="Layer_2" data-name="Layer 2"><g id="Layer_1-2" data-name="Layer 1"><path d="M202.51,42.84H221.1c.3,4.07.59,8,1,13.57,5.25-10.94,13.39-14.88,23.75-15.11,10.69-.23,18.71,4,23.46,14.68,2.09-2.18,3.68-3.59,5-5.23,9-11.47,24.57-10.85,33.78-7.18,10,4,13.61,12.87,13.8,22.49.51,26.6.17,53.23.17,80.24H300.2v-5.43q0-33.45.05-66.91c0-10.33-3.07-14.31-11.26-15-8.35-.68-14.81,4.76-16,13.73a82.76,82.76,0,0,0-.54,10.45c0,19.47,0,39,0,58.42,0,1.47-.12,2.95-.21,4.76H251.17V141c0-22.47,0-44.95-.06-67.42,0-9.82-3.15-13.75-11.25-14.62-7.85-.84-14.25,4.06-16,12.46a33.37,33.37,0,0,0-.61,6.92q-.08,31.22,0,62.42v5.65H202.51Z"/><path d="M469.06,146.41V135.28c0-19.63,0-39.26,0-58.9C469,65,464.3,59.27,455,59.26S439.15,66.14,439,76.68c-.19,18.46-.05,36.94-.05,55.4v14.27h-21.2V0H438V51.75c.75.09,1.24.26,1.33.14,7.87-10.84,19-11.88,30.86-9.88,10.19,1.72,17.77,10.4,19.69,21.92a54.75,54.75,0,0,1,.84,8.93c.07,23.46,0,46.93,0,70.39,0,1-.16,1.92-.27,3.16Z"/><path d="M72.05,146.57H50.28v-5.28q0-33.7,0-67.42c0-8.69-2.89-13-9.39-14.25C32.41,58,25.45,61.34,22.8,69.05A39.53,39.53,0,0,0,21,81.26c-.16,19.81-.05,39.62,0,59.43v5.69H0V.17H20.2V52c2.47-2,4.93-4.39,7.7-6.29,17.5-12,42.66-1.54,43.8,19.59C73.15,92.16,72.05,119.15,72.05,146.57Z"/><path d="M405.75,146.38H387.07c-.58-3.63-1.18-7.42-1.94-12.15-9.56,14.15-22.31,16.61-37,12.64-7.91-2.15-13.47-7.47-14.42-15.48a128.13,128.13,0,0,1-.17-26.27c.62-7,5.11-12.43,11.69-15.1,8.43-3.41,17.15-6.12,25.75-9.08,1.57-.54,3.23-.79,4.81-1.29,7-2.21,8.1-4.14,7.27-12.38-.51-5.12-4-8.16-9.89-8.53a42.6,42.6,0,0,0-6.49,0c-7.69.7-11.61,5-11.79,12.72,0,1.49,0,3,0,4.89H334.62c-3.17-17.48,3.86-28.89,17.81-32.75a65.58,65.58,0,0,1,35.93.1c10.47,3,16.31,10.2,16.64,21.07.57,18.29.57,36.59.74,54.89C405.82,128.49,405.75,137.28,405.75,146.38ZM383,91.75c-7.19,2.48-14,4.66-20.6,7.16-5.6,2.11-8.16,6.54-8.29,12.42,0,2.33,0,4.66,0,7,.28,8.18,3.57,12,10.55,12.44,9.81.55,17.73-4.16,18.18-11.67C383.45,110.19,383,101.23,383,91.75Z"/><path d="M84,76.53c.23-4.9,0-9.44.74-13.79,1.94-10.87,9-17.77,19.49-19.49a98.93,98.93,0,0,1,28.73-.89c16.28,2.15,23,11.27,23.09,29,.16,19.8.05,39.61.06,59.42,0,5.12,0,10.24,0,15.94-5.22,0-10.67.13-16.1-.12-1-.05-2.45-1.55-2.72-2.62-.75-3-1-6.08-1.53-9.84-.93,1.13-1.46,1.69-1.89,2.31-8.7,12.6-22.34,14-34.21,10.87C90.71,145,84.52,139,83.53,129.62a107.06,107.06,0,0,1,0-23.4C85,93.93,94.81,89.37,105,85.86c6.89-2.39,14-4,21-6.12s8.23-4.5,7.19-12.94c-.58-4.72-4.11-7.73-9.81-8.11a42.34,42.34,0,0,0-7.47.12c-6.67.78-10.37,4.84-10.8,11.57-.12,2-.18,3.92-.29,6.15Zm49.32,15.26c-7.36,2.47-14,4.57-20.5,6.91-4.15,1.49-7.5,4.36-7.87,8.84a111.46,111.46,0,0,0,.31,16.74,6.64,6.64,0,0,0,2.55,4.07c4.84,3.71,10.37,3.28,15.64,1.38s9.57-5.23,9.79-11.33C133.52,109.79,133.28,101.17,133.28,91.79Z"/><path d="M718.41,146.48H698.79c-.51-3.68-1-7.22-1.54-11-.61.36-1.14.49-1.34.81-7.66,12.43-22.29,14-34,10.85-10.22-2.77-16.25-11.57-16.8-23.91-.15-3.32-.12-6.65,0-10,.52-12.29,5.85-21.31,17.89-25.48,8-2.76,16-5.35,24.09-7.87,8.55-2.66,10.4-4.9,9.39-12-1-6.72-4.32-9.25-12.33-9.32-12-.11-15.12,3.15-16.72,17.86H647.7c-4.38-14.89,3.84-29.75,18.87-33.37a70.08,70.08,0,0,1,31.66-.24c12.44,2.73,19.18,10.21,19.55,23,.59,19.77.48,39.57.63,59.35C718.46,132.16,718.41,139.1,718.41,146.48ZM696.69,91.42c-8.12,2.87-15.63,5-22.65,8.16-7.68,3.48-10,22.84-3.95,28.7a6.13,6.13,0,0,0,1.17.93c8.65,4.9,25-.41,25.37-12.1C696.93,108.84,696.69,100.55,696.69,91.42Z"/><path class="cls-1" d="M1036.74,76.57h-20.19c-3.26-18,4.65-30.58,22.36-33.68a87.07,87.07,0,0,1,26.23-.57c15.51,2.08,22.15,10.45,22.41,26.73.3,19.79.1,39.58.12,59.37v17.85H1069c-.55-3.67-1.13-7.5-1.79-11.89-.77.88-1.31,1.4-1.74,2-9,12.48-21.8,14.09-35.14,10.59-7.77-2-13.24-7.3-14.27-15a132.43,132.43,0,0,1-.38-26.19c.5-7.53,5.32-12.94,12.12-15.89,7.12-3.08,14.55-5.46,21.9-8,2.65-.92,5.48-1.32,8.17-2.15,6.86-2.12,8.65-5.07,7.62-12.25-.83-5.76-4.22-8.55-10.78-8.78a47.74,47.74,0,0,0-5.48.11c-7.45.61-11,4-11.88,11.49C1037.08,72.25,1037,74.24,1036.74,76.57Zm28.74,15.16c-7.62,2.57-14.65,4.5-21.33,7.28-8.55,3.55-11.35,22.86-4.54,29.14a4.55,4.55,0,0,0,.77.62c5.35,3.15,10.89,2.71,16.23.32,4.92-2.2,8.69-5.77,8.82-11.63C1065.62,109.18,1065.48,100.89,1065.48,91.73Z"/><path class="cls-1" d="M887.75,99.82H838.09c0,7-.75,13.69.2,20.1,1,6.85,7.6,10.89,14.89,10.65s12-4.38,13.48-11.66c.52-2.58.7-5.23,1.06-8h19.47c4.2,20.63-8.06,36.44-29.72,37.46a70.76,70.76,0,0,1-22.08-2.65c-11.68-3.29-19.24-13.45-19.54-25.55q-.6-24.43,0-48.88C816.22,54.92,826,44,842.27,42.11a79.36,79.36,0,0,1,22.24.76c13.44,2.29,22.32,12.51,23.13,26.25C888.22,79.06,887.75,89.05,887.75,99.82Zm-20.83-16c-.18-8.42,1.73-17.11-6.74-22.67-5-3.27-13.57-2.78-17.84.93-7,6.09-4.33,14.11-4.74,21.74Z"/><path d="M573.88,99.83h-49.6c0,7.38-.75,14.38.22,21.14.91,6.41,7.93,10.11,15.54,9.68,6.53-.37,11.7-5.34,12.87-12.49.37-2.28.49-4.6.75-7.17h19.88c3.84,20.12-8.22,35.85-29.18,37.33a71.35,71.35,0,0,1-20.73-1.85c-12.21-2.83-20.28-12.47-20.63-25q-.75-26.92.1-53.89c.43-13.25,8.39-21.76,21.32-24.8a56.18,56.18,0,0,1,26.2-.09c13.94,3.31,22.29,12.61,23.15,26.93C574.35,79.34,573.88,89.18,573.88,99.83Zm-21.41-16c1.85-11.59,0-19.39-5.28-22.71s-14-3.21-18.46.39c-7.54,6.08-4.52,14.43-5,22.32Z"/><path class="cls-1" d="M752.13,146.53H731.51V42.94h19.43V54.82c1-.56,1.52-.66,1.75-1,8.2-11.09,18.63-14.92,31.92-11.68,10.94,2.66,18.59,12.25,18.88,26.35.54,25.77.16,51.57.16,77.76h-22c-.11-1.78-.31-3.69-.31-5.59q0-30.72.07-61.42c0-2.33,0-4.67-.12-7-.56-8.5-3.06-11.59-10.31-13-7-1.31-13.86,1.77-16.39,8.35a38.09,38.09,0,0,0-2.39,13.08c-.25,20-.11,39.95-.11,59.92Z"/><path class="cls-1" d="M899,111.77h20.47c.38,3.29.61,6.56,1.18,9.76,1,5.78,3.69,8.59,9.41,9.32a47.42,47.42,0,0,0,10.38-.08c5.13-.49,8.71-3.24,9.87-8.42,1.21-5.42.34-10.52-4.54-13.76A119,119,0,0,0,933,101.82c-6.38-3.19-13.09-5.81-19.16-9.51-14.6-8.9-14.47-16-12.7-30.07,1.46-11.54,9.63-18.23,20.89-19.67,8.15-1,16.74-1.49,24.76-.07,17.09,3,25.44,15.62,23.66,33.83H950.71c-.14-1.56-.24-2.86-.37-4.17-1.14-12.09-13.2-18.34-23.9-12.38-7,3.87-7.75,13.86-1,18.23,4.84,3.12,10.4,5.13,15.65,7.6,5.55,2.61,11.31,4.85,16.65,7.84,13.25,7.41,15.34,19.4,13,33.1-1.79,10.5-9,18.41-21.67,20.35a84.82,84.82,0,0,1-27.17,0C905,143.89,897.27,131.25,899,111.77Z"/><path d="M188.79,146.5h-20.9V.08h20.9Z"/><path d="M607.85,146.53H587.21V43h19.52V57.55l1,.35,2.09-4.47c4.68-10,19.79-15.9,29.48-11.26a4.15,4.15,0,0,1,1.72,3.11c.18,5,.08,9.93.08,15.31a48.77,48.77,0,0,1-5.71,0C615.71,58,608.46,72,608,86.27c-.55,18.12-.16,36.28-.18,54.42Z"/><path class="cls-1" d="M982.18,42.69h21.51V146.31H982.18Z"/><path class="cls-1" d="M1257.6,119.09c0,17.08-12.35,29.55-29,29.41-16.39-.14-28.93-13.14-28.81-29.88s13-29.72,29.24-29.49C1245.63,89.37,1257.64,102,1257.6,119.09Zm-29.11-23.33c-12.16.08-21.42,9.85-21.53,22.71-.11,13.42,9.27,23.6,21.74,23.59,12.31,0,21.75-10,21.76-23C1250.47,105.54,1241.15,95.67,1228.49,95.76Z"/><path class="cls-1" d="M1298.61,146.41h-5.79c0-6.69,0-13.14,0-19.59,0-7.15.11-14.31-.21-21.45-.24-5.23-3.27-8.17-8-8.62a8.94,8.94,0,0,0-9.92,6.54,28.34,28.34,0,0,0-1.13,7.83c-.11,11.63,0,23.25,0,35.26l-4.7.3V91.85l6.5,2.48c8.28-4.65,13.59-4.09,20.33,2.52,3.17-1.72,6-4,9.24-4.85,10.07-2.51,17.55,3.39,17.7,13.78.18,13.44,0,26.89,0,40.45-3.69,1.1-5.05.21-5-3.55.18-10.65.07-21.3,0-31.94a36.05,36.05,0,0,0-.24-6c-.71-4.31-3-7.42-7.62-8a8.91,8.91,0,0,0-9.94,5.87,21.39,21.39,0,0,0-1.22,7.79C1298.54,122.38,1298.61,134.32,1298.61,146.41Z"/><path class="cls-1" d="M1191.73,136.16c-6,10.36-18.47,14.79-31.42,11.3-12.19-3.29-20.27-15.25-19.91-29.48.34-14,9.2-25.44,21.76-28.09s24.33,2.21,29.57,12.52l-6,2.4c-6.1-8.86-14.4-11-24.11-7.77-8,2.64-13.59,11.14-13.92,20.63-.37,10.42,4.52,19,13,22.78,7.11,3.2,17.14,2,21.73-3.65C1185.83,132.58,1188.41,133.52,1191.73,136.16Z"/><path class="cls-1" d="M981.78,7.18h22.35V30.37H981.78Z"/><path class="cls-1" d="M1127.94,138.66c-1.88,2-3.37,3.78-5,5.35-8.46,8-9.47,8-17.37-.45-5-5.3-5-5.53-.07-10.81,7.69-8.27,9.18-8.32,17.13-.29C1124.43,134.31,1126,136.41,1127.94,138.66Z"/></g></g></svg>