<?xml version="1.0" encoding="UTF-8" standalone="no"?>
<!-- Creator: CorelDRAW -->

<svg
   xmlns:dc="http://purl.org/dc/elements/1.1/"
   xmlns:cc="http://creativecommons.org/ns#"
   xmlns:rdf="http://www.w3.org/1999/02/22-rdf-syntax-ns#"
   xmlns:svg="http://www.w3.org/2000/svg"
   xmlns="http://www.w3.org/2000/svg"
   xmlns:sodipodi="http://sodipodi.sourceforge.net/DTD/sodipodi-0.dtd"
   xmlns:inkscape="http://www.inkscape.org/namespaces/inkscape"
   xml:space="preserve"
   width="50.649002mm"
   height="14.3721mm"
   style="clip-rule:evenodd;fill-rule:evenodd;image-rendering:optimizeQuality;shape-rendering:geometricPrecision;text-rendering:geometricPrecision"
   viewBox="0 0 50.649002 14.3721"
   version="1.1"
   id="svg41"
   sodipodi:docname="Hypermart.svg"
   inkscape:version="0.92.2 (5c3e80d, 2017-08-06)"><metadata
     id="metadata45"><rdf:RDF><cc:Work
         rdf:about=""><dc:format>image/svg+xml</dc:format><dc:type
           rdf:resource="http://purl.org/dc/dcmitype/StillImage" /><dc:title></dc:title></cc:Work></rdf:RDF></metadata><sodipodi:namedview
     pagecolor="#ffffff"
     bordercolor="#666666"
     borderopacity="1"
     objecttolerance="10"
     gridtolerance="10"
     guidetolerance="10"
     inkscape:pageopacity="0"
     inkscape:pageshadow="2"
     inkscape:window-width="1366"
     inkscape:window-height="705"
     id="namedview43"
     showgrid="false"
     fit-margin-top="0"
     fit-margin-left="0"
     fit-margin-right="0"
     fit-margin-bottom="0"
     inkscape:zoom="4"
     inkscape:cx="95.691161"
     inkscape:cy="62.425698"
     inkscape:window-x="-8"
     inkscape:window-y="-8"
     inkscape:window-maximized="1"
     inkscape:current-layer="svg41" /><defs
     id="defs4"><style
       type="text/css"
       id="style2"><![CDATA[
    .fil0 {fill:#00579A}
    .fil1 {fill:#FEE700}
   ]]></style></defs><g
     id="Layer_x0020_1"
     transform="translate(-79.6755,-147.042)"><metadata
       id="CorelCorpID_0Corel-Layer" /><g
       id="_76131040"><g
         id="g21"><path
           id="_76132240"
           class="fil0"
           d="m 83.267,158.043 v 0.5383 c -0.0675,0 -0.1301,0.0145 -0.1874,0.0328 -0.0521,0.0205 -0.101,0.064 -0.1487,0.1207 -0.0421,0.053 -0.0754,0.1302 -0.101,0.2302 -0.028,0.096 -0.0379,0.2162 -0.0379,0.3651 0,0.1498 0.0099,0.2695 0.033,0.3597 0.0237,0.0923 0.0584,0.1641 0.096,0.2165 0.0396,0.0572 0.0923,0.0963 0.1498,0.1259 0.0567,0.0228 0.1245,0.0327 0.1962,0.0384 v 0.5366 c -0.399,0 -0.7012,-0.1145 -0.9216,-0.3406 -0.2154,-0.2299 -0.3264,-0.5417 -0.3264,-0.9407 0,-0.3988 0.111,-0.7164 0.3264,-0.942 0.2204,-0.2247 0.5226,-0.3409 0.9216,-0.3409 z m -1.4124,2.4874 h -2.1304 v -3.1986 h 0.802 v 2.5893 h 1.3284 z m 6.6466,-2.4102 -0.7058,2.4102 h -0.7975 l -0.4218,-1.5555 -0.4286,1.5555 h -0.7959 l -0.6974,-2.4102 h 0.7892 l 0.3694,1.5938 0.454,-1.5938 h 0.6644 l 0.4316,1.5938 0.3665,-1.5938 z m -5.2342,2.487 v -0.5366 h 0.0058 c 0.058,0 0.1195,-0.0156 0.1819,-0.0384 0.0619,-0.0296 0.1111,-0.0687 0.1476,-0.1196 0.0447,-0.0587 0.0771,-0.1348 0.1034,-0.2228 0.0225,-0.0857 0.0316,-0.2053 0.0316,-0.3597 0,-0.1429 -0.0091,-0.2637 -0.0316,-0.3552 -0.0263,-0.0957 -0.0587,-0.1731 -0.0971,-0.2307 -0.0493,-0.0575 -0.096,-0.0999 -0.1539,-0.1241 -0.0523,-0.0243 -0.1198,-0.0388 -0.1877,-0.0388 v -0.5383 c 0.3937,0 0.7019,0.1162 0.9172,0.3461 0.2165,0.225 0.327,0.538 0.327,0.9368 0,0.399 -0.1105,0.7108 -0.327,0.9407 -0.2153,0.2261 -0.5235,0.3406 -0.9172,0.3406 z m 8.0149,-2.5015 v 0.5332 h -0.0251 c -0.0658,0 -0.1339,0.011 -0.202,0.0282 -0.0658,0.025 -0.1279,0.0589 -0.1942,0.1019 v 1.209 c 0.0424,0.0203 0.0837,0.0297 0.1333,0.0382 0.0479,0.005 0.1049,0.0105 0.1686,0.0105 0.0427,0 0.0789,-0.005 0.1194,-0.0105 v 0.5494 c -0.0493,-0.006 -0.0957,-0.0162 -0.1399,-0.0293 -0.0872,-0.0251 -0.1832,-0.0675 -0.2814,-0.1256 v 1.0034 h -0.7497 v -3.2939 h 0.7497 v 0.2497 c 0.1077,-0.0905 0.2244,-0.1671 0.3341,-0.2301 0.0294,-0.01 0.0575,-0.023 0.0872,-0.0341 z m 6.0108,2.4879 c -0.2014,0 -0.3839,-0.0242 -0.5466,-0.0724 -0.1675,-0.0524 -0.3079,-0.129 -0.4315,-0.2301 -0.1211,-0.106 -0.2122,-0.2404 -0.2785,-0.3999 -0.0678,-0.1524 -0.1014,-0.3401 -0.1014,-0.5554 0,-0.2319 0.0336,-0.4278 0.1048,-0.587 0.0772,-0.1641 0.1728,-0.2965 0.2993,-0.403 0.1194,-0.0958 0.2632,-0.172 0.4216,-0.2202 0.1635,-0.0487 0.3309,-0.0721 0.5095,-0.0721 0.1341,0 0.2623,0.0148 0.3984,0.0476 0.1342,0.0287 0.2689,0.0769 0.4028,0.1444 v 0.6477 h -0.0969 c -0.0322,-0.0282 -0.066,-0.0615 -0.1088,-0.0951 -0.0444,-0.0328 -0.0911,-0.0684 -0.1461,-0.0963 -0.051,-0.0297 -0.1133,-0.0519 -0.1817,-0.0772 -0.0714,-0.0191 -0.1493,-0.0288 -0.2287,-0.0288 -0.1939,0 -0.3423,0.0684 -0.4475,0.2023 -0.1059,0.129 -0.1577,0.3119 -0.1577,0.5377 0,0.2398 0.0567,0.4224 0.168,0.5417 0.1148,0.1208 0.2634,0.1775 0.4466,0.1775 0.0948,0 0.176,-0.008 0.2486,-0.0334 0.0729,-0.019 0.1344,-0.0469 0.1886,-0.0763 0.047,-0.0293 0.0897,-0.0621 0.1276,-0.0914 0.0359,-0.0345 0.0638,-0.0624 0.0911,-0.0914 h 0.0969 v 0.6482 c -0.0436,0.0142 -0.0898,0.0393 -0.1489,0.0618 -0.0568,0.0248 -0.1163,0.0428 -0.1719,0.0638 -0.0723,0.0182 -0.1443,0.0331 -0.207,0.0424 -0.0618,0.01 -0.1496,0.0149 -0.2506,0.0149 z m -1.7385,-2.8186 h -0.7899 v -0.5856 h 0.7899 z m -0.0234,2.7554 H 94.782 v -2.4102 h 0.7488 z m -1.0368,-1.6987 h -0.0632 c -0.0287,-0.0103 -0.0712,-0.0188 -0.1239,-0.0248 -0.0544,-0.005 -0.1145,-0.005 -0.1768,-0.005 -0.0826,0 -0.1638,0.0111 -0.251,0.0338 -0.0863,0.0242 -0.1718,0.0473 -0.2557,0.0824 v 1.6124 h -0.7477 v -2.4102 h 0.7477 v 0.3469 c 0.039,-0.0347 0.088,-0.0729 0.1461,-0.1213 0.0621,-0.0476 0.1156,-0.0855 0.1674,-0.1151 0.0524,-0.0325 0.1149,-0.0569 0.1874,-0.0821 0.0724,-0.023 0.145,-0.0378 0.206,-0.0378 0.025,0 0.053,0 0.0823,0.006 0.0285,0 0.0587,0 0.0814,0.003 z m -3.2121,1.7339 v -0.5494 c 0.1247,-0.0231 0.2213,-0.0763 0.2876,-0.1677 0.0923,-0.1203 0.1344,-0.3013 0.1344,-0.5415 0,-0.2361 -0.0378,-0.4036 -0.109,-0.5089 -0.0692,-0.1009 -0.1749,-0.1538 -0.313,-0.1592 v -0.5332 c 0.0951,-0.0331 0.1976,-0.0522 0.313,-0.0522 0.2771,0 0.4936,0.11 0.6468,0.3304 0.1535,0.2256 0.2327,0.53 0.2327,0.9086 0,0.3833 -0.0977,0.6956 -0.2942,0.9308 -0.198,0.235 -0.4361,0.3554 -0.7246,0.3554 -0.0641,0 -0.1205,-0.005 -0.1737,-0.0131 z m 8.1725,-2.516 v 0.4787 c -0.1344,0.006 -0.241,0.0491 -0.3167,0.1291 -0.0811,0.0868 -0.1256,0.2076 -0.1347,0.36 h 0.4514 v 0.452 H 99.003 c 0.0091,0.1105 0.0325,0.2064 0.0721,0.278 0.0395,0.0789 0.0917,0.1358 0.1575,0.1791 0.0655,0.0482 0.1395,0.0761 0.2218,0.0951 v 0.5666 c -0.3562,-0.0283 -0.6334,-0.1339 -0.8407,-0.3162 -0.2387,-0.2213 -0.3655,-0.5289 -0.3655,-0.9323 0,-0.393 0.1154,-0.7051 0.3418,-0.9407 0.2119,-0.221 0.499,-0.3363 0.8644,-0.3494 z m 2.3182,2.5494 c -0.1763,0 -0.3455,-0.0203 -0.5027,-0.0581 -0.1592,-0.0396 -0.2897,-0.0826 -0.3945,-0.1345 v -0.6377 h 0.0638 c 0.0361,0.0279 0.0758,0.0576 0.1233,0.0909 0.0433,0.0316 0.1119,0.0669 0.1926,0.1039 0.0677,0.0348 0.149,0.0581 0.2344,0.0837 0.0874,0.0234 0.1828,0.0368 0.2876,0.0368 0.1077,0 0.1997,-0.0191 0.2803,-0.0518 0.0818,-0.0296 0.1187,-0.0823 0.1187,-0.1547 0,-0.0581 -0.0179,-0.0997 -0.0526,-0.1301 -0.0384,-0.0283 -0.1091,-0.0524 -0.2196,-0.0818 -0.0527,-0.0137 -0.1313,-0.0282 -0.2165,-0.0418 -0.0866,-0.0197 -0.1638,-0.0393 -0.2304,-0.0585 -0.1871,-0.0567 -0.3318,-0.1429 -0.4293,-0.2583 -0.0885,-0.1165 -0.1369,-0.2697 -0.1369,-0.4574 0,-0.1054 0.0239,-0.2053 0.0726,-0.3016 0.047,-0.0957 0.1197,-0.1829 0.2133,-0.2547 0.0971,-0.0726 0.2179,-0.1341 0.3583,-0.1731 0.1433,-0.0433 0.3016,-0.0667 0.4794,-0.0667 0.1666,0 0.3207,0.0191 0.4634,0.0522 0.1401,0.0341 0.2598,0.0723 0.3563,0.1213 v 0.6086 h -0.0564 c -0.0254,-0.019 -0.0672,-0.0478 -0.1256,-0.0817 -0.0527,-0.0333 -0.1091,-0.0618 -0.1643,-0.0868 -0.0607,-0.0282 -0.1288,-0.053 -0.2099,-0.0713 -0.0772,-0.0184 -0.1544,-0.0287 -0.2345,-0.0287 -0.1116,0 -0.2027,0.0176 -0.281,0.0575 -0.071,0.0396 -0.1083,0.0874 -0.1083,0.1484 0,0.0535 0.0182,0.0957 0.0522,0.1304 0.0373,0.0282 0.1198,0.0616 0.246,0.0903 0.0621,0.0157 0.1387,0.0291 0.2196,0.049 0.0809,0.014 0.1632,0.0334 0.2401,0.0576 0.1731,0.0569 0.3068,0.1387 0.3936,0.244 0.0909,0.1119 0.1339,0.2553 0.1339,0.4335 0,0.1134 -0.0228,0.2205 -0.0758,0.321 -0.0535,0.1051 -0.1287,0.1923 -0.2267,0.2601 -0.1043,0.0763 -0.225,0.1338 -0.3643,0.1774 -0.1381,0.0424 -0.3065,0.0627 -0.5001,0.0627 z m -2.3182,-1.1296 v -0.452 h 0.4563 c -0.0045,-0.1624 -0.039,-0.2826 -0.1114,-0.3643 -0.066,-0.0817 -0.1774,-0.1248 -0.3167,-0.1248 h -0.0282 v -0.4787 c 0.0282,-0.007 0.0573,-0.007 0.0858,-0.007 0.3705,0 0.6437,0.1014 0.8319,0.2974 0.1858,0.2025 0.2772,0.4861 0.2772,0.8604 v 0.2686 z m 0,1.1188 v -0.5666 h 0.0034 c 0.0867,0.0191 0.1786,0.0291 0.2858,0.0291 0.0842,0 0.1714,-0.01 0.254,-0.0291 0.0863,-0.019 0.1629,-0.0436 0.2344,-0.0763 0.0584,-0.0242 0.1159,-0.0541 0.1689,-0.0857 0.053,-0.03 0.096,-0.0587 0.1281,-0.0818 h 0.0781 v 0.6189 c -0.0587,0.0248 -0.1154,0.0473 -0.1689,0.0673 -0.0475,0.0187 -0.1193,0.0441 -0.2062,0.0623 -0.0812,0.0231 -0.1678,0.0393 -0.2546,0.0524 -0.0854,0.01 -0.1926,0.0149 -0.317,0.0149 -0.0712,0 -0.1396,0 -0.206,-0.005 z m 6.0826,-1.6087 v 0.4608 c -0.0563,0.0159 -0.1079,0.0291 -0.1683,0.0476 -0.061,0.0253 -0.1122,0.0593 -0.1533,0.1016 -0.033,0.0479 -0.0512,0.1106 -0.0512,0.1883 0,0.1134 0.0279,0.1914 0.0923,0.2347 0.0603,0.0382 0.1475,0.0632 0.2663,0.0632 h 0.0142 v 0.4506 c -0.0418,0.0188 -0.08,0.0336 -0.1227,0.0431 -0.0639,0.0188 -0.1538,0.0242 -0.2703,0.0242 -0.2065,0 -0.3837,-0.0673 -0.5227,-0.212 -0.1441,-0.1429 -0.2122,-0.3266 -0.2122,-0.5423 0,-0.1777 0.0343,-0.3218 0.1066,-0.4329 0.0715,-0.1102 0.1731,-0.1954 0.3073,-0.2634 0.1393,-0.0624 0.301,-0.1114 0.4847,-0.1336 0.0761,-0.0105 0.1544,-0.0205 0.2293,-0.0299 z m 0,-0.926 v 0.5423 c -0.0612,-0.0111 -0.133,-0.0145 -0.2096,-0.0145 -0.0877,0 -0.1871,0.0202 -0.3025,0.0485 -0.1208,0.0344 -0.2372,0.0766 -0.3494,0.1241 h -0.0644 v -0.5801 c 0.0735,-0.0252 0.1928,-0.0482 0.3606,-0.0781 0.1628,-0.0274 0.3267,-0.0422 0.4939,-0.0422 z m 3.9388,2.4769 h -0.7588 v -1.1946 c 0,-0.0968 0,-0.1928 -0.009,-0.2931 -0.0106,-0.096 -0.0259,-0.1635 -0.0436,-0.211 -0.0279,-0.053 -0.0617,-0.0914 -0.115,-0.1168 -0.049,-0.0228 -0.1108,-0.0368 -0.1928,-0.0368 -0.061,0 -0.1254,0.014 -0.1872,0.0339 -0.0632,0.0228 -0.129,0.061 -0.2011,0.1094 v 1.709 h -0.7547 v -2.4102 h 0.7547 v 0.2637 c 0.1251,-0.1008 0.245,-0.1811 0.3598,-0.2441 0.1153,-0.0578 0.244,-0.0863 0.389,-0.0863 0.2444,0 0.4315,0.0763 0.5614,0.2347 0.1301,0.1533 0.1974,0.3789 0.1974,0.6728 z m -3.9388,-0.004 v -0.4506 c 0.0632,-0.005 0.1268,-0.0207 0.1892,-0.049 0.0666,-0.0284 0.129,-0.0723 0.1874,-0.1253 v -0.5038 c -0.1302,0.0151 -0.2327,0.0288 -0.3082,0.0339 -0.0242,0.005 -0.0467,0.009 -0.0684,0.009 v -0.4608 c 0.1202,-0.0145 0.2464,-0.0239 0.3794,-0.0328 v -0.0151 c 0,-0.1298 -0.0464,-0.2196 -0.1484,-0.2742 -0.0581,-0.0276 -0.1344,-0.0519 -0.231,-0.0616 v -0.5423 c 0.3794,0.004 0.6591,0.0763 0.8368,0.2068 0.1917,0.1387 0.2883,0.3492 0.2883,0.6329 v 1.6372 h -0.7485 v -0.2539 c -0.0536,0.0436 -0.0972,0.0824 -0.1404,0.1157 -0.0373,0.0327 -0.096,0.0661 -0.1627,0.1005 -0.023,0.0154 -0.0481,0.0226 -0.0735,0.0336 z m 5.5136,-2.4636 v 0.5671 c -0.1262,0.0233 -0.2142,0.0822 -0.2875,0.1771 -0.0925,0.1247 -0.1355,0.3031 -0.1355,0.5289 0,0.2347 0.035,0.4073 0.1066,0.5127 0.0674,0.1014 0.1722,0.1541 0.3164,0.1592 v 0.5417 c -0.0282,0.0105 -0.0584,0.02 -0.0867,0.0293 -0.0621,0.01 -0.1275,0.0203 -0.2116,0.0203 -0.2737,0 -0.4952,-0.1163 -0.6522,-0.3424 -0.1623,-0.2244 -0.2418,-0.5317 -0.2418,-0.9123 0,-0.2108 0.0254,-0.3933 0.0837,-0.5462 0.0527,-0.1538 0.1276,-0.2891 0.2247,-0.4039 0.0875,-0.106 0.1932,-0.1877 0.3168,-0.2498 0.125,-0.0581 0.254,-0.0909 0.3944,-0.0909 0.0627,0 0.1214,0.004 0.1727,0.009 z m 5.9159,2.4677 v -1.2045 c 0,-0.1149 0,-0.2159 -0.007,-0.298 -0.003,-0.0812 -0.0188,-0.1487 -0.0367,-0.2014 -0.0242,-0.0535 -0.0569,-0.0862 -0.1008,-0.1116 -0.0487,-0.0228 -0.1099,-0.0368 -0.1923,-0.0368 -0.0569,0 -0.1153,0.014 -0.1672,0.0368 -0.0583,0.0254 -0.1176,0.0638 -0.1834,0.1065 v 1.709 h -0.7525 v -1.2045 c 0,-0.1149 -0.007,-0.2159 -0.0102,-0.298 -0.004,-0.0812 -0.0183,-0.1487 -0.0384,-0.2014 -0.0263,-0.0535 -0.0584,-0.0862 -0.1014,-0.1116 -0.0439,-0.0228 -0.11,-0.0368 -0.1874,-0.0368 -0.0619,0 -0.1245,0.014 -0.1823,0.0425 -0.0587,0.0282 -0.1154,0.0632 -0.1741,0.1008 v 1.709 h -0.7499 v -2.4102 h 0.7499 v 0.2637 c 0.1259,-0.1008 0.2416,-0.1811 0.3523,-0.2441 0.1043,-0.0578 0.2299,-0.0863 0.3658,-0.0863 0.1472,0 0.2765,0.0328 0.387,0.1057 0.1111,0.0715 0.1974,0.1717 0.2543,0.3119 0.149,-0.1342 0.2832,-0.2364 0.4133,-0.3076 0.1251,-0.0721 0.2564,-0.11 0.3891,-0.11 0.1111,0 0.2116,0.0191 0.299,0.0522 0.0904,0.0387 0.1676,0.0925 0.2242,0.1626 0.067,0.0775 0.1207,0.1698 0.1529,0.2746 0.0336,0.1102 0.0499,0.2506 0.0499,0.4181 v 1.5694 z m -5.9159,0.019 v -0.5417 h 0.0341 c 0.0669,0 0.1336,-0.009 0.2014,-0.0385 0.0663,-0.0239 0.129,-0.0566 0.1834,-0.0999 v -1.188 c -0.0347,-0.0171 -0.0826,-0.0314 -0.1455,-0.0424 -0.0579,-0.0143 -0.1097,-0.0188 -0.1519,-0.0188 -0.0447,0 -0.0874,0.004 -0.1215,0.01 v -0.5671 c 0.0486,0.01 0.0962,0.0193 0.1395,0.0287 0.076,0.0288 0.1723,0.0678 0.2794,0.1253 v -1.0273 h 0.7528 v 3.341 h -0.7528 v -0.249 c -0.0481,0.0387 -0.1028,0.0814 -0.1641,0.1293 -0.0634,0.0436 -0.1216,0.0761 -0.164,0.1005 -0.0339,0.0151 -0.0623,0.0297 -0.0908,0.0382 z m 8.2961,-2.5064 v 0.5383 c -0.0666,0 -0.1284,0.0145 -0.1814,0.0328 -0.057,0.0205 -0.104,0.064 -0.1541,0.1207 -0.0375,0.053 -0.0749,0.1302 -0.0994,0.2302 -0.0256,0.096 -0.0376,0.2162 -0.0376,0.3651 0,0.1498 0.012,0.2695 0.0376,0.3597 0.0245,0.0923 0.0522,0.1641 0.0903,0.2165 0.0382,0.0572 0.0915,0.0963 0.1538,0.1259 0.0575,0.0228 0.1208,0.0327 0.1908,0.0384 v 0.5366 c -0.3913,0 -0.6986,-0.1145 -0.9153,-0.3406 -0.2202,-0.2299 -0.3313,-0.5417 -0.3313,-0.9407 0,-0.3988 0.1111,-0.7164 0.3313,-0.942 0.2167,-0.2247 0.524,-0.3409 0.9153,-0.3409 z m 3.2627,0.7887 h -0.0636 c -0.0279,-0.0103 -0.0666,-0.0188 -0.1241,-0.0248 -0.0522,-0.005 -0.1106,-0.005 -0.1775,-0.005 -0.0811,0 -0.1643,0.0111 -0.25,0.0338 -0.0872,0.0242 -0.1687,0.0473 -0.2513,0.0824 v 1.6124 h -0.7541 v -2.4102 h 0.7541 v 0.3469 c 0.0348,-0.0347 0.0826,-0.0729 0.1413,-0.1213 0.0635,-0.0476 0.1191,-0.0855 0.1674,-0.1151 0.053,-0.0325 0.1194,-0.0569 0.1926,-0.0821 0.0706,-0.023 0.1393,-0.0378 0.2019,-0.0378 0.022,0 0.0513,0 0.0801,0.006 0.0344,0 0.0575,0 0.0832,0.003 z m -3.2627,1.7755 v -0.5366 h 0.006 c 0.0626,0 0.1193,-0.0156 0.1831,-0.0384 0.0617,-0.0296 0.1137,-0.0687 0.1475,-0.1196 0.0493,-0.0587 0.082,-0.1348 0.1006,-0.2228 0.0248,-0.0857 0.0373,-0.2053 0.0373,-0.3597 0,-0.1429 -0.0125,-0.2637 -0.0373,-0.3552 -0.0234,-0.0957 -0.0556,-0.1731 -0.096,-0.2307 -0.041,-0.0575 -0.0946,-0.0999 -0.1521,-0.1241 -0.0533,-0.0243 -0.1151,-0.0388 -0.1889,-0.0388 v -0.5383 c 0.3951,0 0.7027,0.1162 0.9171,0.3461 0.2179,0.225 0.3288,0.538 0.3288,0.9368 0,0.399 -0.1109,0.7108 -0.3288,0.9407 -0.2144,0.2261 -0.522,0.3406 -0.9171,0.3406 z m 4.583,-2.5576 v 0.4787 c -0.1395,0.006 -0.2418,0.0491 -0.3224,0.1291 -0.0814,0.0868 -0.1253,0.2076 -0.1341,0.36 h 0.4565 v 0.452 h -0.4565 c 0.009,0.1105 0.0333,0.2064 0.0721,0.278 0.0378,0.0789 0.0948,0.1358 0.1569,0.1791 0.0649,0.0482 0.141,0.0761 0.2275,0.0951 v 0.5666 c -0.3617,-0.0283 -0.6396,-0.1339 -0.8467,-0.3162 -0.2378,-0.2213 -0.3649,-0.5289 -0.3649,-0.9323 0,-0.393 0.1165,-0.7051 0.3424,-0.9407 0.2113,-0.221 0.4984,-0.3363 0.8692,-0.3494 z m 6.3948,2.4808 h -0.7633 v -0.8451 h 0.7633 z m -1.3736,0 h -0.7631 v -0.8451 h 0.7631 z m -1.3766,0 h -0.7593 v -0.8451 h 0.7593 z m -3.6446,-1.061 v -0.452 h 0.4506 c -0.004,-0.1624 -0.0367,-0.2826 -0.1104,-0.3643 -0.0656,-0.0817 -0.1786,-0.1248 -0.3173,-0.1248 h -0.0229 v -0.4787 c 0.0229,-0.007 0.051,-0.007 0.0792,-0.007 0.3714,0 0.6446,0.1014 0.8328,0.2974 0.1872,0.2025 0.2789,0.4861 0.2789,0.8604 v 0.2686 z m 0,1.1188 v -0.5666 c 0.0867,0.0191 0.1772,0.0291 0.2829,0.0291 0.0857,0 0.1729,-0.01 0.2532,-0.0291 0.0883,-0.019 0.1632,-0.0436 0.2366,-0.0763 0.0576,-0.0242 0.116,-0.0541 0.1667,-0.0857 0.0535,-0.03 0.0971,-0.0587 0.1305,-0.0818 h 0.0763 v 0.6189 c -0.057,0.0248 -0.114,0.0473 -0.1673,0.0673 -0.0489,0.0187 -0.1218,0.0441 -0.2062,0.0623 -0.0831,0.0231 -0.1697,0.0393 -0.2552,0.0524 -0.0856,0.01 -0.1907,0.0149 -0.3175,0.0149 -0.0703,0 -0.1396,0 -0.2,-0.005 z"
           inkscape:connector-curvature="0"
           style="fill:#00579a" /><polygon
           id="_76131760"
           class="fil0"
           points="89.1753,156.286 130.281,156.286 130.281,147.042 89.1753,147.042 "
           style="fill:#00579a" /><path
           id="_76131496"
           class="fil1"
           d="m 94.8442,153.664 h -1.229 v -1.9448 c 0,-0.1586 0,-0.3121 -0.0143,-0.4705 -0.0088,-0.1589 -0.0375,-0.2737 -0.0711,-0.3455 -0.0439,-0.0932 -0.1071,-0.1541 -0.1834,-0.1922 -0.0761,-0.0385 -0.1823,-0.0578 -0.3162,-0.0578 -0.1031,0 -0.2028,0.0142 -0.3033,0.0578 -0.0988,0.0336 -0.2105,0.0957 -0.325,0.1777 v 2.7753 h -1.2202 v -5.4319 h 1.2202 v 1.9459 c 0.1993,-0.1691 0.3927,-0.3021 0.5802,-0.3993 0.1919,-0.0956 0.3978,-0.1389 0.6331,-0.1389 0.3945,0 0.701,0.1247 0.9131,0.3742 0.2154,0.2552 0.3159,0.6198 0.3159,1.1003 z"
           inkscape:connector-curvature="0"
           style="fill:#fee700" /><polygon
           id="_76131400"
           class="fil1"
           points="95.2725,149.746 96.5547,149.746 97.3804,152.199 98.1519,149.746 99.4069,149.746 97.4274,155.1 96.1167,155.1 96.7076,153.568 "
           style="fill:#fee700" /><path
           id="_76131712"
           class="fil1"
           d="m 101.768,153.721 c -0.0804,-0.0142 -0.1544,-0.0293 -0.225,-0.0468 -0.1439,-0.044 -0.2968,-0.115 -0.4597,-0.2079 v 1.6329 h -1.2211 v -5.3532 h 1.2211 v 0.4082 c 0.1814,-0.1552 0.3583,-0.2783 0.5456,-0.3754 0.0436,-0.0236 0.0912,-0.0433 0.1391,-0.0572 v 0.8693 c -0.0132,-0.006 -0.0283,-0.006 -0.0419,-0.006 -0.106,0 -0.2159,0.0188 -0.3218,0.053 -0.1106,0.0342 -0.2151,0.0866 -0.321,0.1535 v 1.9741 c 0.0663,0.0273 0.1383,0.0475 0.2138,0.0624 0.0787,0.01 0.1689,0.0142 0.2748,0.0142 0.073,0 0.1346,-0.004 0.1961,-0.0142 z m 1.9318,-2.069 c 0,0.6238 -0.1543,1.1283 -0.471,1.513 -0.3213,0.3831 -0.711,0.5711 -1.1763,0.5711 -0.1,0 -0.1974,-0.005 -0.2845,-0.0151 v -0.8926 c 0.2027,-0.0351 0.3611,-0.1307 0.4728,-0.2791 0.1372,-0.1915 0.2099,-0.484 0.2099,-0.8784 0,-0.3751 -0.0576,-0.6523 -0.1726,-0.8257 -0.1108,-0.1626 -0.2843,-0.2498 -0.5101,-0.2543 v -0.8693 c 0.1495,-0.0582 0.3232,-0.0818 0.5101,-0.0818 0.4517,0 0.8014,0.178 1.0512,0.5383 0.2435,0.3589 0.3705,0.8542 0.3705,1.4739 z"
           inkscape:connector-curvature="0"
           style="fill:#fee700" /><path
           id="_76131448"
           class="fil1"
           d="m 106.024,153.755 c -0.5767,-0.0475 -1.0282,-0.2204 -1.364,-0.5177 -0.3947,-0.3512 -0.5861,-0.8545 -0.5861,-1.5079 0,-0.6431 0.178,-1.1526 0.5473,-1.5318 0.341,-0.3562 0.8078,-0.5476 1.4028,-0.5712 v 0.7824 c -0.2176,0.0102 -0.3902,0.082 -0.5147,0.2116 -0.1336,0.1432 -0.211,0.3358 -0.2201,0.5793 h 0.7348 v 0.7362 h -0.7303 c 0.009,0.1817 0.0464,0.337 0.1103,0.4572 0.0675,0.119 0.1546,0.2156 0.2597,0.291 0.1008,0.0724 0.2258,0.1208 0.3603,0.155 z m 0,-4.1286 h 0.1345 c 0.5995,0 1.052,0.1588 1.3525,0.4853 0.3022,0.321 0.4572,0.7826 0.4572,1.3876 v 0.4366 h -1.9442 v -0.7362 h 0.7385 c -0.005,-0.2581 -0.0666,-0.4543 -0.1834,-0.5842 -0.1093,-0.1392 -0.2817,-0.2067 -0.5181,-0.2067 h -0.037 z m 0.3304,4.1398 c -0.1145,0 -0.2213,-0.006 -0.3304,-0.0112 v -0.9159 h 0.007 c 0.1418,0.0333 0.29,0.047 0.4577,0.047 0.1387,0 0.2771,-0.0137 0.4179,-0.047 0.1335,-0.0342 0.2577,-0.0724 0.3739,-0.1259 0.102,-0.0439 0.1914,-0.0911 0.2803,-0.1433 0.0837,-0.0492 0.1521,-0.0957 0.2045,-0.1352 h 0.1287 v 1.0088 c -0.0997,0.0373 -0.19,0.078 -0.272,0.1105 -0.0866,0.0341 -0.1974,0.0672 -0.3415,0.1003 -0.1342,0.0381 -0.2686,0.0626 -0.4125,0.0826 -0.1406,0.0233 -0.3072,0.0293 -0.514,0.0293 z"
           inkscape:connector-curvature="0"
           style="fill:#fee700" /><path
           id="_76132048"
           class="fil1"
           d="m 111.223,150.903 h -0.0997 c -0.0487,-0.0199 -0.1171,-0.0296 -0.2068,-0.0396 -0.0866,-0.009 -0.1823,-0.0139 -0.2928,-0.0139 -0.1253,0 -0.2603,0.0191 -0.4036,0.0589 -0.139,0.037 -0.2737,0.0804 -0.4039,0.1333 v 2.6221 h -1.2238 v -3.918 h 1.2238 v 0.5608 c 0.0536,-0.0527 0.1302,-0.1136 0.2308,-0.1957 0.0962,-0.072 0.1887,-0.1398 0.2691,-0.1831 0.0883,-0.0518 0.1923,-0.1008 0.3076,-0.1392 0.1193,-0.0394 0.231,-0.0573 0.3366,-0.0573 0.0394,0 0.0815,0.004 0.1279,0.004 0.0536,0 0.0957,0.005 0.1348,0.0105 z"
           inkscape:connector-curvature="0"
           style="fill:#fee700" /><path
           id="_76131640"
           class="fil1"
           d="m 116.371,153.664 v -1.9573 c 0,-0.1948 -0.006,-0.3592 -0.0151,-0.4919 0,-0.1293 -0.0254,-0.2398 -0.0573,-0.3213 -0.0384,-0.0868 -0.0908,-0.1444 -0.1631,-0.1825 -0.0724,-0.0385 -0.1764,-0.0578 -0.308,-0.0578 -0.0959,0 -0.1865,0.0193 -0.2768,0.0578 -0.0874,0.0418 -0.1883,0.099 -0.2942,0.1777 v 2.7753 h -1.2293 v -1.9573 c 0,-0.1888 -0.004,-0.3592 -0.009,-0.4865 -0.0145,-0.1347 -0.0342,-0.2452 -0.0683,-0.3267 -0.0336,-0.0868 -0.0843,-0.1444 -0.1638,-0.1825 -0.0695,-0.0385 -0.1755,-0.0578 -0.301,-0.0578 -0.1009,0 -0.2017,0.0241 -0.2925,0.072 -0.096,0.0438 -0.1929,0.096 -0.28,0.1635 v 2.7753 h -1.2237 v -3.918 h 1.2237 v 0.432 c 0.1987,-0.1691 0.3856,-0.3021 0.5622,-0.3993 0.1768,-0.0956 0.3762,-0.1389 0.5955,-0.1389 0.2416,0 0.4504,0.0529 0.6329,0.168 0.1786,0.1162 0.3184,0.2837 0.4141,0.509 0.237,-0.2208 0.4617,-0.3888 0.6668,-0.5051 0.2082,-0.119 0.4181,-0.1719 0.6289,-0.1719 0.1831,0 0.3469,0.0236 0.4921,0.0817 0.143,0.063 0.2629,0.1484 0.3643,0.2638 0.1088,0.1256 0.192,0.2788 0.245,0.4465 0.057,0.1775 0.0814,0.4034 0.0814,0.6825 v 2.5497 z"
           inkscape:connector-curvature="0"
           style="fill:#fee700" /><path
           id="_76131616"
           class="fil1"
           d="m 120.055,149.635 v 0.8781 c -0.1028,-0.0139 -0.2168,-0.0179 -0.3427,-0.0179 -0.1484,0 -0.3119,0.0276 -0.5089,0.0769 -0.1926,0.0578 -0.378,0.1247 -0.5608,0.2022 h -0.106 v -0.9419 c 0.1196,-0.0382 0.3167,-0.0826 0.5853,-0.125 0.2692,-0.047 0.5443,-0.0724 0.8158,-0.0724 z m 0,2.2577 c -0.0934,0.0188 -0.1831,0.0431 -0.2746,0.0721 -0.1071,0.0431 -0.1877,0.0951 -0.2515,0.1723 -0.0575,0.0778 -0.0849,0.1784 -0.0849,0.3025 0,0.1823 0.0465,0.3093 0.1487,0.3746 0.1006,0.0717 0.2455,0.1062 0.4363,0.1062 h 0.026 v 0.7334 c -0.0738,0.0288 -0.1395,0.0536 -0.2071,0.0726 -0.1013,0.0248 -0.2449,0.0397 -0.4332,0.0397 -0.3441,0 -0.6349,-0.116 -0.8636,-0.3475 -0.2256,-0.2293 -0.3403,-0.523 -0.3403,-0.8767 0,-0.2945 0.0567,-0.5298 0.1708,-0.7081 0.1165,-0.1769 0.2843,-0.3213 0.4991,-0.426 0.2272,-0.1061 0.491,-0.1829 0.7977,-0.2213 0.12,-0.0149 0.2447,-0.0277 0.3766,-0.0423 z m 0.6041,0.748 v -0.8149 c -0.2071,0.0191 -0.37,0.038 -0.4979,0.0516 -0.041,0.005 -0.0757,0.0102 -0.1062,0.0153 v -0.7485 c 0.1911,-0.0259 0.397,-0.0398 0.6135,-0.058 v -0.0188 c 0,-0.217 -0.0812,-0.3658 -0.2398,-0.4472 -0.0975,-0.0481 -0.2222,-0.0866 -0.3737,-0.1071 v -0.8781 c 0.6135,0.01 1.0689,0.1208 1.3571,0.3367 0.3073,0.2258 0.4611,0.5659 0.4611,1.0265 v 2.6661 h -1.2141 v -0.4175 c -0.0815,0.0718 -0.159,0.1336 -0.227,0.1919 -0.0604,0.053 -0.153,0.1097 -0.2632,0.1641 -0.0376,0.0183 -0.0778,0.0376 -0.1139,0.051 v -0.7334 c 0.0954,-0.005 0.1945,-0.0285 0.3007,-0.0772 0.1159,-0.0433 0.2114,-0.1105 0.3034,-0.2025 z"
           inkscape:connector-curvature="0"
           style="fill:#fee700" /><path
           id="_76131424"
           class="fil1"
           d="m 125.407,150.903 h -0.1006 c -0.0475,-0.0199 -0.1153,-0.0296 -0.205,-0.0396 -0.0888,-0.009 -0.1831,-0.0139 -0.2937,-0.0139 -0.1244,0 -0.2606,0.0191 -0.4036,0.0589 -0.14,0.037 -0.2748,0.0804 -0.4041,0.1333 v 2.6221 h -1.2238 v -3.918 H 124 v 0.5608 c 0.0547,-0.0527 0.1293,-0.1136 0.2315,-0.1957 0.0954,-0.072 0.1877,-0.1398 0.2686,-0.1831 0.0863,-0.0518 0.1915,-0.1008 0.3076,-0.1392 0.1182,-0.0394 0.2305,-0.0573 0.3358,-0.0573 0.0385,0 0.0812,0.004 0.1288,0.004 0.0533,0 0.0914,0.005 0.1347,0.0105 z"
           inkscape:connector-curvature="0"
           style="fill:#fee700" /><path
           id="_76131928"
           class="fil1"
           d="m 127.775,153.736 c -0.5004,0 -0.859,-0.1005 -1.0849,-0.3033 -0.2292,-0.2057 -0.3449,-0.5375 -0.3449,-1.0077 v -1.8254 h -0.4608 v -0.8536 h 0.4608 v -1.1179 h 1.223 v 1.1179 h 1.1729 v 0.8536 h -1.1729 v 1.3834 c 0,0.1398 0,0.2606 0.006,0.3608 0,0.1045 0.0179,0.1914 0.0513,0.274 0.0344,0.0861 0.0928,0.1484 0.1734,0.196 0.0809,0.0478 0.2068,0.0717 0.3603,0.0717 0.0664,0 0.1533,-0.0136 0.2606,-0.0429 0.1048,-0.0288 0.1763,-0.0531 0.2199,-0.0764 h 0.1011 v 0.859 c -0.1293,0.0388 -0.27,0.0666 -0.4181,0.0815 -0.1532,0.0242 -0.331,0.0293 -0.548,0.0293 z"
           inkscape:connector-curvature="0"
           style="fill:#fee700" /><polygon
           id="_76131952"
           class="fil0"
           points="79.6755,156.286 88.3994,156.286 88.3994,147.042 79.6755,147.042 "
           style="fill:#00579a" /><path
           id="_76131544"
           class="fil1"
           d="m 86.6195,155.099 h -1.6089 v -2.2996 c 0,-0.1877 -0.01,-0.3745 -0.0242,-0.5624 -0.0137,-0.1818 0,-0.2581 -0.0388,-0.3449 -0.0467,-0.1066 -0.1053,-0.1488 -0.2013,-0.1978 -0.0921,-0.0424 -0.2014,-0.0666 -0.3603,-0.0666 -0.1151,0 -0.1923,0.053 -0.3108,0.0955 -0.121,0.0444 -0.3805,0.3508 -0.438,0.5385 v 2.8373 h -1.6129 v -4.7253 l 0.297,-0.7141 0.7104,0.2968 -0.2917,-0.7155 0.7149,-0.2973 -0.6571,-0.2737 h 0.8394 v 2.4252 c 0.2398,-0.1976 0.4702,-0.4805 0.6952,-0.5964 0.2219,-0.1094 0.4723,-0.1672 0.7446,-0.1672 0.475,0 0.9122,0.1191 1.1631,0.4176 0.2495,0.297 0.3794,0.7627 0.3794,1.3295 z"
           inkscape:connector-curvature="0"
           style="fill:#fee700" /><polygon
           id="_76131352"
           class="fil1"
           points="83.0319,147.931 82.7399,148.646 82.7977,148.67 82.0244,148.67 82.0244,150.374 81.7273,149.66 81.011,149.957 81.3081,149.238 80.5935,148.944 81.3081,148.65 81.011,147.931 81.7273,148.229 82.0244,147.513 82.3215,148.229 "
           style="fill:#fee700" /></g><g
         id="g37" /></g></g></svg>