<?xml version="1.0" encoding="UTF-8" standalone="no"?>
<!-- Created with Inkscape (http://www.inkscape.org/) -->

<svg
   version="1.1"
   id="svg408"
   width="248.061"
   height="217.13"
   viewBox="0 0 248.061 217.13"
   sodipodi:docname="POSIND_2023 (with wordmark).svg"
   inkscape:version="1.2.2 (b0a8486541, 2022-12-01)"
   xmlns:inkscape="http://www.inkscape.org/namespaces/inkscape"
   xmlns:sodipodi="http://sodipodi.sourceforge.net/DTD/sodipodi-0.dtd"
   xmlns="http://www.w3.org/2000/svg"
   xmlns:svg="http://www.w3.org/2000/svg">
  <defs
     id="defs412" />
  <sodipodi:namedview
     id="namedview410"
     pagecolor="#ffffff"
     bordercolor="#000000"
     borderopacity="0.25"
     inkscape:showpageshadow="2"
     inkscape:pageopacity="0.0"
     inkscape:pagecheckerboard="0"
     inkscape:deskcolor="#d1d1d1"
     showgrid="false"
     inkscape:zoom="0.88551096"
     inkscape:cx="-8.4696863"
     inkscape:cy="223.03507"
     inkscape:window-width="1187"
     inkscape:window-height="582"
     inkscape:window-x="0"
     inkscape:window-y="0"
     inkscape:window-maximized="1"
     inkscape:current-layer="g2011" />
  <g
     inkscape:groupmode="layer"
     inkscape:label="Image"
     id="g414">
    <g
       id="g717"
       transform="matrix(1,0,0,0.99991091,-2.1781387,-2.5458282)">
      <g
         id="g702"
         transform="translate(-1.791297,2.5579625)">
        <g
           id="g2011">
          <g
             aria-label="Logistik Indonesia"
             transform="matrix(1.0054208,0,0,0.99544902,-0.21297038,-3.1276494e-5)"
             id="text589"
             style="font-weight:bold;font-size:26.7294px;font-family:Sora;-inkscape-font-specification:'Sora Bold';letter-spacing:-0.100176px;fill:#182c61;stroke-width:2.95944">
            <path
               d="m 4.1629036,212.41008 v -19.51246 h 3.7955749 v 16.17128 h 7.8851735 v 3.34118 z"
               style="font-weight:600;-inkscape-font-specification:'Sora Semi-Bold'"
               id="path5745" />
            <path
               d="m 25.366032,212.91794 q -2.566022,0 -4.330162,-1.04245 -1.764141,-1.06917 -2.69967,-2.77986 -0.9088,-1.71068 -0.9088,-3.63519 v -0.56132 q 0,-2.00471 0.935529,-3.71539 0.962259,-1.71068 2.726399,-2.75313 1.79087,-1.04244 4.276704,-1.04244 2.459105,0 4.223246,1.04244 1.79087,1.04245 2.726399,2.75313 0.962258,1.71068 0.962258,3.71539 v 0.56132 q 0,1.92451 -0.935529,3.63519 -0.9088,1.71069 -2.67294,2.77986 -1.76414,1.04245 -4.303434,1.04245 z m 0,-3.1808 q 2.031435,0 3.100611,-1.28301 1.095905,-1.30974 1.095905,-3.28772 0,-1.97797 -1.122634,-3.28771 -1.122635,-1.30974 -3.073882,-1.30974 -1.977975,0 -3.10061,1.30974 -1.122635,1.30974 -1.122635,3.28771 0,1.97798 1.069176,3.28772 1.095906,1.28301 3.154069,1.28301 z"
               style="font-weight:600;-inkscape-font-specification:'Sora Semi-Bold'"
               id="path5747" />
            <path
               d="m 42.105402,218.13017 q -2.21854,0 -4.143057,-0.29402 v -3.10061 q 0.935529,0.13364 2.031435,0.21383 1.122634,0.0802 2.084893,0.0802 2.67294,0 3.849034,-0.98899 1.202823,-0.96226 1.202823,-3.12734 v -1.28301 q -0.748424,1.41666 -2.058164,2.16508 -1.283012,0.7217 -2.966964,0.7217 -2.004705,0 -3.501551,-0.96226 -1.470117,-0.98899 -2.298729,-2.61948 -0.828611,-1.65722 -0.828611,-3.71539 v -0.56132 q 0,-2.05816 0.855341,-3.68865 0.88207,-1.6305 2.405646,-2.56603 1.550305,-0.96225 3.581739,-0.96225 1.897788,0 3.260987,0.88207 1.389929,0.88207 2.111623,2.53929 v -2.96696 h 2.940234 v 12.80338 q 0,3.98268 -2.058164,5.69336 -2.058164,1.73741 -6.468515,1.73741 z m 1.069176,-8.79397 q 1.069176,0 1.951247,-0.48113 0.88207,-0.48113 1.416658,-1.38993 0.534588,-0.9088 0.534588,-2.19181 v -0.93553 q 0,-1.22955 -0.561318,-2.08489 -0.534588,-0.85534 -1.443387,-1.28301 -0.882071,-0.4544 -1.897788,-0.4544 -1.76414,0 -2.886775,1.22955 -1.095905,1.20282 -1.095905,3.20753 0,2.03143 1.095905,3.20753 1.122635,1.17609 2.886775,1.17609 z"
               style="font-weight:600;-inkscape-font-specification:'Sora Semi-Bold'"
               id="path5749" />
            <path
               d="m 56.65295,196.1586 q -1.095905,0 -1.630493,-0.56131 -0.507859,-0.58805 -0.507859,-1.47012 0,-0.88207 0.507859,-1.44339 0.534588,-0.56132 1.630493,-0.56132 1.069176,0 1.577035,0.56132 0.534588,0.56132 0.534588,1.44339 0,0.88207 -0.534588,1.47012 -0.507859,0.56131 -1.577035,0.56131 z m -1.363199,16.25148 v -11.73421 h -2.031434 v -2.77985 h 5.746821 v 14.51406 z"
               style="font-weight:600;-inkscape-font-specification:'Sora Semi-Bold'"
               id="path5751" />
            <path
               d="m 68.447381,212.86448 q -2.993693,0 -4.704374,-1.25628 -1.683953,-1.28301 -1.764141,-3.52828 h 3.341175 q 0.05346,0.77515 0.801882,1.38993 0.775153,0.58804 2.378917,0.58804 1.309741,0 2.111623,-0.48113 0.801882,-0.48113 0.801882,-1.30974 0,-0.72169 -0.614777,-1.12263 -0.588046,-0.42767 -2.031434,-0.58805 l -1.283011,-0.13365 q -2.459105,-0.26729 -3.768846,-1.38992 -1.283011,-1.12264 -1.283011,-2.9937 0,-1.47011 0.748423,-2.48583 0.748423,-1.04245 2.058164,-1.55031 1.33647,-0.53458 3.047152,-0.53458 2.67294,0 4.330163,1.20282 1.657222,1.17609 1.737411,3.42136 h -3.341175 q -0.08019,-0.74842 -0.775153,-1.28301 -0.668235,-0.53459 -1.977976,-0.53459 -1.176093,0 -1.817599,0.4544 -0.641506,0.4544 -0.641506,1.1761 0,0.69496 0.507859,1.06917 0.507859,0.37421 1.710682,0.50786 l 1.283011,0.13365 q 2.539293,0.26729 4.00941,1.41666 1.470117,1.14936 1.470117,3.10061 0,1.44338 -0.801882,2.51256 -0.775153,1.04245 -2.191811,1.63049 -1.416658,0.58805 -3.341175,0.58805 z"
               style="font-weight:600;-inkscape-font-specification:'Sora Semi-Bold'"
               id="path5753" />
            <path
               d="m 84.064088,212.59719 q -2.004705,0 -3.314445,-0.50786 -1.309741,-0.53459 -1.951246,-1.76414 -0.614777,-1.22956 -0.614777,-3.36791 v -6.33487 h -2.298728 v -2.72639 h 2.298728 l 0.02673,-4.0896 h 3.474822 l -0.02673,4.0896 h 4.49054 v 2.72639 h -4.49054 v 6.57544 q 0,1.06917 0.561318,1.65722 0.588047,0.56132 1.657223,0.56132 h 2.271999 v 3.1808 z"
               style="font-weight:600;-inkscape-font-specification:'Sora Semi-Bold'"
               id="path5755" />
            <path
               d="m 91.234303,196.1586 q -1.095906,0 -1.630494,-0.56131 -0.507858,-0.58805 -0.507858,-1.47012 0,-0.88207 0.507858,-1.44339 0.534588,-0.56132 1.630494,-0.56132 1.069176,0 1.577034,0.56132 0.534588,0.56132 0.534588,1.44339 0,0.88207 -0.534588,1.47012 -0.507858,0.56131 -1.577034,0.56131 z m -1.3632,16.25148 v -11.73421 h -2.031434 v -2.77985 h 5.746821 v 14.51406 z"
               style="font-weight:600;-inkscape-font-specification:'Sora Semi-Bold'"
               id="path5757" />
            <path
               d="m 97.763038,212.41008 v -19.51246 h 3.715382 v 12.0015 l 5.58645,-7.0031 h 3.87576 l -4.94494,6.17449 6.12104,8.33957 h -4.19652 l -4.86475,-6.78927 h -1.57704 v 6.78927 z"
               style="font-weight:600;-inkscape-font-specification:'Sora Semi-Bold'"
               id="path5759" />
            <path
               d="m 120.17576,212.41008 v -19.51246 h 3.79557 v 19.51246 z"
               style="font-weight:600;-inkscape-font-specification:'Sora Semi-Bold'"
               id="path5761" />
            <path
               d="m 128.44189,212.41008 v -14.51406 h 2.94024 v 3.58174 q 0.93553,-4.03614 4.97167,-4.03614 h 0.16037 q 2.59275,0 3.92922,1.68395 1.33647,1.68395 1.33647,4.97167 v 8.31284 h -3.71538 v -8.6336 q 0,-1.33647 -0.77515,-2.16508 -0.77516,-0.82861 -2.0849,-0.82861 -1.3632,0 -2.21854,0.85534 -0.82861,0.85534 -0.82861,2.24527 v 8.52668 z"
               style="font-weight:600;-inkscape-font-specification:'Sora Semi-Bold'"
               id="path5763" />
            <path
               d="m 151.6765,212.89121 q -2.03144,0 -3.60847,-0.96226 -1.57704,-0.98899 -2.48584,-2.67294 -0.88207,-1.68395 -0.88207,-3.79557 v -0.56132 q 0,-2.08489 0.85535,-3.76885 0.85534,-1.68395 2.37891,-2.67294 1.55031,-1.01571 3.6352,-1.01571 1.55031,0 2.77986,0.6415 1.25628,0.61478 2.05816,1.87106 v -7.05656 h 3.71539 v 19.51246 h -2.94024 v -3.04715 q -0.74842,1.76414 -2.21854,2.64621 -1.44338,0.88207 -3.28771,0.88207 z m 0.82861,-3.12734 q 1.09591,0 2.0047,-0.48113 0.9088,-0.50786 1.44339,-1.44339 0.56132,-0.93553 0.56132,-2.24527 v -1.06917 q 0,-1.25629 -0.58805,-2.13836 -0.56131,-0.88207 -1.47011,-1.33647 -0.9088,-0.48112 -1.95125,-0.48112 -1.8176,0 -2.96696,1.28301 -1.12264,1.25628 -1.12264,3.34117 0,2.0849 1.14937,3.34118 1.14936,1.22955 2.94023,1.22955 z"
               style="font-weight:600;-inkscape-font-specification:'Sora Semi-Bold'"
               id="path5765" />
            <path
               d="m 171.22242,212.91794 q -2.56602,0 -4.33016,-1.04245 -1.76414,-1.06917 -2.69967,-2.77986 -0.9088,-1.71068 -0.9088,-3.63519 v -0.56132 q 0,-2.00471 0.93553,-3.71539 0.96226,-1.71068 2.7264,-2.75313 1.79087,-1.04244 4.2767,-1.04244 2.45911,0 4.22325,1.04244 1.79087,1.04245 2.72639,2.75313 0.96226,1.71068 0.96226,3.71539 v 0.56132 q 0,1.92451 -0.93553,3.63519 -0.9088,1.71069 -2.67294,2.77986 -1.76414,1.04245 -4.30343,1.04245 z m 0,-3.1808 q 2.03143,0 3.10061,-1.28301 1.09591,-1.30974 1.09591,-3.28772 0,-1.97797 -1.12264,-3.28771 -1.12263,-1.30974 -3.07388,-1.30974 -1.97798,0 -3.10061,1.30974 -1.12263,1.30974 -1.12263,3.28771 0,1.97798 1.06917,3.28772 1.09591,1.28301 3.15407,1.28301 z"
               style="font-weight:600;-inkscape-font-specification:'Sora Semi-Bold'"
               id="path5767" />
            <path
               d="m 182.29517,212.41008 v -14.51406 h 2.94023 v 3.58174 q 0.93553,-4.03614 4.97167,-4.03614 h 0.16037 q 2.59276,0 3.92923,1.68395 1.33647,1.68395 1.33647,4.97167 v 8.31284 h -3.71539 v -8.6336 q 0,-1.33647 -0.77515,-2.16508 -0.77516,-0.82861 -2.0849,-0.82861 -1.3632,0 -2.21854,0.85534 -0.82861,0.85534 -0.82861,2.24527 v 8.52668 z"
               style="font-weight:600;-inkscape-font-specification:'Sora Semi-Bold'"
               id="path5769" />
            <path
               d="m 206.0109,212.91794 q -1.87106,0 -3.28772,-0.64151 -1.38993,-0.6415 -2.32546,-1.71068 -0.90879,-1.0959 -1.38992,-2.43237 -0.4544,-1.33647 -0.4544,-2.7264 v -0.50786 q 0,-1.44339 0.4544,-2.77986 0.48113,-1.33647 1.38992,-2.40565 0.93553,-1.06917 2.29873,-1.68395 1.3632,-0.6415 3.15407,-0.6415 2.35219,0 3.92922,1.04244 1.57704,1.01572 2.37892,2.69967 0.82861,1.65723 0.82861,3.58174 v 1.33647 h -10.90559 q 0.1871,1.71068 1.12263,2.75313 0.96226,1.04245 2.80659,1.04245 1.33647,0 2.19181,-0.53459 0.88207,-0.56132 1.12263,-1.3632 h 3.42137 q -0.48113,2.24527 -2.272,3.60847 -1.79087,1.3632 -4.46381,1.3632 z m -0.16038,-12.4559 q -1.57703,0 -2.51256,0.88207 -0.93553,0.88207 -1.20282,2.43237 h 7.29712 q -0.21383,-1.5503 -1.12263,-2.43237 -0.88207,-0.88207 -2.45911,-0.88207 z"
               style="font-weight:600;-inkscape-font-specification:'Sora Semi-Bold'"
               id="path5771" />
            <path
               d="m 221.25342,212.86448 q -2.99369,0 -4.70437,-1.25628 -1.68395,-1.28301 -1.76414,-3.52828 h 3.34117 q 0.0535,0.77515 0.80189,1.38993 0.77515,0.58804 2.37891,0.58804 1.30974,0 2.11162,-0.48113 0.80189,-0.48113 0.80189,-1.30974 0,-0.72169 -0.61478,-1.12263 -0.58805,-0.42767 -2.03143,-0.58805 l -1.28302,-0.13365 q -2.4591,-0.26729 -3.76884,-1.38992 -1.28301,-1.12264 -1.28301,-2.9937 0,-1.47011 0.74842,-2.48583 0.74842,-1.04245 2.05816,-1.55031 1.33647,-0.53458 3.04716,-0.53458 2.67294,0 4.33016,1.20282 1.65722,1.17609 1.73741,3.42136 h -3.34117 q -0.0802,-0.74842 -0.77516,-1.28301 -0.66823,-0.53459 -1.97797,-0.53459 -1.1761,0 -1.8176,0.4544 -0.64151,0.4544 -0.64151,1.1761 0,0.69496 0.50786,1.06917 0.50786,0.37421 1.71068,0.50786 l 1.28301,0.13365 q 2.5393,0.26729 4.00941,1.41666 1.47012,1.14936 1.47012,3.10061 0,1.44338 -0.80188,2.51256 -0.77515,1.04245 -2.19181,1.63049 -1.41666,0.58805 -3.34118,0.58805 z"
               style="font-weight:600;-inkscape-font-specification:'Sora Semi-Bold'"
               id="path5773" />
            <path
               d="m 232.62016,196.1586 q -1.09591,0 -1.63049,-0.56131 -0.50786,-0.58805 -0.50786,-1.47012 0,-0.88207 0.50786,-1.44339 0.53458,-0.56132 1.63049,-0.56132 1.06918,0 1.57703,0.56132 0.53459,0.56132 0.53459,1.44339 0,0.88207 -0.53459,1.47012 -0.50785,0.56131 -1.57703,0.56131 z m -1.3632,16.25148 v -11.73421 h -2.03143 v -2.77985 h 5.74682 v 14.51406 z"
               style="font-weight:600;-inkscape-font-specification:'Sora Semi-Bold'"
               id="path5775" />
            <path
               d="m 243.26522,212.78429 q -2.40564,0 -3.84903,-1.22955 -1.41666,-1.22955 -1.41666,-3.44809 0,-2.37892 1.71068,-3.50156 1.73741,-1.14936 4.65092,-1.14936 h 2.96696 v -0.13365 q 0,-2.48583 -2.51256,-2.48583 -0.66824,0 -1.60377,0.0267 -0.93553,0.0267 -1.89778,0.0802 -0.93553,0.0267 -1.68396,0.0802 v -3.15407 q 0.9088,-0.0802 2.16508,-0.13365 1.28302,-0.0535 2.35219,-0.0535 3.34118,0 5.02513,1.3632 1.71068,1.33647 1.71068,4.35689 v 9.00781 h -2.94023 v -2.77986 q -0.98899,3.15407 -4.67765,3.15407 z m 1.04245,-2.64621 q 0.74842,0 1.41666,-0.26729 0.66823,-0.29403 1.0959,-0.96226 0.4544,-0.69497 0.50786,-1.87106 v -1.3632 h -3.02042 q -1.28301,0 -1.97798,0.64151 -0.66823,0.61477 -0.66823,1.60376 0,1.01572 0.66823,1.63049 0.69497,0.58805 1.97798,0.58805 z"
               style="font-weight:600;-inkscape-font-specification:'Sora Semi-Bold'"
               id="path5777" />
          </g>
          <g
             id="Layer_1-2"
             data-name="Layer 1"
             transform="matrix(0.51993124,0,0,0.52398032,3.9694357,0.00744906)">
            <g
               id="g22">
              <path
                 class="cls-1"
                 d="M 85.25,0 H 0 V 38 C 0,46.56 3.47,54.31 9.08,59.92 14.69,65.53 22.44,71 31,71 v 7 H 17.06 C 14.14,78 11.4,78.73 9,80.02 3.94,82.74 0.4,87.94 0.03,94 H 0 v 61 h 41.5 v -40.5 h 43.75 c 15.81,0 30.12,-6.41 40.48,-16.77 C 136.09,87.37 142.5,73.06 142.5,57.25 142.5,25.63 116.87,0 85.25,0 Z M 96.59,73.53 C 93.7,76.44 88.95,77.5 81.5,77.5 h -40 v -38 h 40 c 14.9,0 19,4.25 19,19 0,7.38 -1.02,12.12 -3.91,15.03 z"
                 id="path6"
                 style="fill:#182c61" />
              <path
                 class="cls-2"
                 d="m 41.5,169 v 43.19 c -11.46,0 -21.49,-3.18 -29,-10.69 C 4.99,193.99 0.29,180.3 0.01,169 Z"
                 id="path8"
                 style="fill:#f94f1b" />
              <path
                 class="cls-1"
                 d="M 21.84,217.5 H 41.5 V 324 H 0 v -88.5 h 0.04 c 0.5,-8.11 2.46,-14 7.46,-16 2.94,-1.17 10.43,-2 14.34,-2 z"
                 id="path10"
                 style="fill:#182c61" />
              <path
                 class="cls-1"
                 d="M 211.5,169 V 324 H 166.15 L 102.68,233.53 H 98.5 V 324 H 57 V 169 h 46.16 c 0.2,0.28 0.34,0.5 0.34,0.5 l 63.32,94 H 170 V 169 Z"
                 id="path12"
                 style="fill:#182c61" />
              <path
                 class="cls-1"
                 d="M 311.86,169 H 228 v 80.04 c 1.14,6.34 4.21,12.01 8.58,16.38 5.61,5.61 13.36,11.08 21.92,11.08 v 7 h -13.94 c -2.92,0 -5.66,0.73 -8.06,2.02 -4.19,2.25 -7.34,6.21 -8.5,10.94 V 324 h 83.86 c 41.77,0 75.64,-33.87 75.64,-75.64 v -3.72 C 387.5,202.87 353.63,169 311.86,169 Z m 30.64,79.67 c 0,36.76 -16.04,35.83 -35.83,35.83 H 269.5 v -76 h 37.17 c 19.79,0 35.83,-0.93 35.83,35.83 z"
                 id="path14"
                 style="fill:#182c61" />
              <path
                 class="cls-1"
                 d="M 0.01,169 H 0 v -0.98 c 0,0.32 0,0.65 0.01,0.98 z"
                 id="path16"
                 style="fill:#182c61" />
              <path
                 class="cls-1"
                 d="m 234,0 c -49.88,0 -85.58,31.59 -85.58,77.5 0,45.91 35.7,77.5 85.58,77.5 49.88,0 85.58,-31.59 85.58,-77.5 C 319.58,31.59 283.88,0 234,0 Z m 0,116.91 c -22.83,0 -42.13,-8.23 -42.13,-39.41 0,-31.18 19.3,-39.41 42.13,-39.41 22.83,0 42.13,8.23 42.13,39.41 0,31.18 -19.3,39.41 -42.13,39.41 z"
                 id="path18"
                 style="fill:#182c61" />
              <path
                 class="cls-1"
                 d="m 405.5,156 c -83,0 -75,-56.18 -75,-56.18 h 42 v 10.03 c 0,2.3 2.31,4.06 4.81,5.28 2.99,1.46 6.29,2.16 9.61,2.21 9.27,0.13 34.46,0.43 38.31,-0.05 0.11,0 0.22,-0.03 0.32,-0.04 5.24,-0.74 9.17,-5.43 8.69,-10.7 -0.26,-2.79 -1.68,-5.51 -5.74,-6.73 -10,-3.01 -46,-6.02 -46,-6.02 -59,-2.01 -55,-45.14 -55,-45.14 0,0 -4,-48.66 74.93,-48.66 78.93,0 70.97,55.68 70.97,55.68 h -41.9 v -6.54 c 0,-1.47 -0.32,-2.94 -1.07,-4.19 -3.86,-6.42 -14.9,-6.74 -14.9,-6.74 h -32.37 c -2.49,0 -4.98,0.4 -7.3,1.3 -3.04,1.18 -6.36,3.34 -6.36,7.14 0,3.23 1.9,5.4 3.96,6.8 2.09,1.42 4.57,2.12 7.09,2.21 4.2,0.15 16.32,1.23 48.95,7.04 45,8.03 47,36.12 47,36.12 0,0 12,57.18 -71,57.18 z"
                 id="path20"
                 style="fill:#182c61" />
            </g>
          </g>
        </g>
      </g>
    </g>
  </g>
</svg>
