<?xml version="1.0" encoding="UTF-8" standalone="no"?>
<svg
   width="512"
   height="208.015"
   viewBox="0 0 135.467 55.037302"
   version="1.1"
   id="svg26"
   sodipodi:docname="RRI_Ternate_2023.svg"
   inkscape:version="1.2.2 (b0a8486541, 2022-12-01)"
   xmlns:inkscape="http://www.inkscape.org/namespaces/inkscape"
   xmlns:sodipodi="http://sodipodi.sourceforge.net/DTD/sodipodi-0.dtd"
   xmlns="http://www.w3.org/2000/svg"
   xmlns:svg="http://www.w3.org/2000/svg">
  <sodipodi:namedview
     id="namedview28"
     pagecolor="#ffffff"
     bordercolor="#000000"
     borderopacity="0.25"
     inkscape:showpageshadow="2"
     inkscape:pageopacity="0.0"
     inkscape:pagecheckerboard="0"
     inkscape:deskcolor="#d1d1d1"
     showgrid="false"
     inkscape:zoom="0.66711859"
     inkscape:cx="122.91668"
     inkscape:cy="174.63162"
     inkscape:window-width="1187"
     inkscape:window-height="582"
     inkscape:window-x="0"
     inkscape:window-y="0"
     inkscape:window-maximized="1"
     inkscape:current-layer="svg26" />
  <path
     fill="#0375e5"
     d="M 0,41.193 H 11.59 V 12.76 H 0 Z M 24.364,24.32 h -11.59 c 0,-6.386 5.19,-11.561 11.59,-11.561 z m 4.444,16.87 h 11.59 V 12.76 h -11.59 z m 40.365,0 H 57.583 V 24.32 c 0,-6.386 5.189,-11.562 11.59,-11.562 z M 54.546,18.54 c 0,3.573 -2.902,6.468 -6.483,6.468 -3.581,0 -6.483,-2.895 -6.483,-6.467 0,-3.572 2.903,-6.467 6.483,-6.467 3.58,0 6.483,2.894 6.483,6.467 m 3.036,-6.962 h 11.59 V 0.017 h -11.59 z"
     id="path2" />
  <g
     fill="#002873"
     transform="matrix(0.26458,0,0,0.27115,-0.005,0.012)"
     id="g20">
    <path
       d="m 304.888,62.736 8.139,13.014 h -4.765 l -7.843,-13.014 z m 3.289,-7.142 c 0,-1.561 -0.478,-2.805 -1.433,-3.736 -0.955,-0.931 -2.475,-1.397 -4.555,-1.397 h -6.747 v 10.222 h 6.79 c 1.376,0 2.501,-0.211 3.373,-0.636 0.872,-0.425 1.517,-1.018 1.939,-1.785 0.422,-0.767 0.633,-1.656 0.633,-2.668 m -5.988,-8.581 c 2.333,0 4.253,0.39 5.756,1.171 1.503,0.781 2.629,1.814 3.373,3.1 0.744,1.286 1.118,2.723 1.118,4.311 a 9.01,9.01 0 0 1 -0.549,3.078 c -0.365,1.011 -0.955,1.938 -1.77,2.772 -0.815,0.834 -1.877,1.492 -3.184,1.971 -1.307,0.479 -2.875,0.717 -4.701,0.717 h -6.79 V 75.75 h -4.216 V 47.013 Z"
       id="path4" />
    <path
       id="use6"
       d="m 320.491,64.994 h 17.206 v 3.448 h -17.206 z m 9.615,-14.533 h -1.476 l -9.277,25.289 h -4.302 l 10.628,-28.737 h 7.296 L 343.601,75.75 H 339.3 Z" />
    <path
       d="m 357.346,72.301 c 3.711,0 6.528,-0.951 8.455,-2.854 1.927,-1.903 2.888,-4.548 2.888,-7.943 0,-3.448 -0.963,-6.151 -2.888,-8.107 -1.925,-1.956 -4.744,-2.936 -8.455,-2.936 h -5.904 V 72.3 Z m 0,-25.287 c 3.205,0 5.968,0.588 8.287,1.765 2.319,1.177 4.118,2.847 5.398,5.007 1.28,2.16 1.918,4.736 1.918,7.719 0,2.956 -0.64,5.495 -1.918,7.615 -1.278,2.12 -3.079,3.756 -5.398,4.907 -2.319,1.151 -5.082,1.723 -8.287,1.723 h -10.12 V 47.014 Z m 20.621,28.736 h 4.216 V 47.013 h -4.216 z m 24.121,-3.243 c 1.996,0 3.788,-0.452 5.376,-1.355 1.588,-0.903 2.847,-2.189 3.774,-3.858 0.927,-1.669 1.392,-3.641 1.392,-5.912 0,-2.299 -0.463,-4.277 -1.392,-5.932 -0.929,-1.655 -2.185,-2.936 -3.774,-3.84 -1.589,-0.904 -3.38,-1.353 -5.376,-1.353 -2.025,0 -3.838,0.45 -5.439,1.353 -1.601,0.903 -2.861,2.184 -3.774,3.84 -0.913,1.656 -1.371,3.632 -1.371,5.932 0,2.271 0.458,4.242 1.371,5.912 0.913,1.67 2.171,2.956 3.774,3.858 1.603,0.902 3.415,1.355 5.439,1.355 m 0,3.53 c -2.082,0 -4.027,-0.355 -5.84,-1.067 -1.813,-0.712 -3.394,-1.718 -4.744,-3.018 -1.35,-1.3 -2.403,-2.847 -3.162,-4.639 -0.759,-1.792 -1.139,-3.77 -1.139,-5.932 0,-2.162 0.378,-4.133 1.139,-5.912 a 14.15,14.15 0 0 1 3.162,-4.639 c 1.35,-1.315 2.931,-2.326 4.744,-3.038 1.813,-0.712 3.759,-1.068 5.84,-1.068 2.052,0 3.977,0.357 5.777,1.068 a 14.16,14.16 0 0 1 4.724,3.038 14.15,14.15 0 0 1 3.162,4.639 c 0.76,1.778 1.139,3.75 1.139,5.912 0,2.162 -0.378,4.14 -1.139,5.932 -0.761,1.792 -1.813,3.339 -3.162,4.639 a 14.325,14.325 0 0 1 -4.724,3.018 c -1.8,0.712 -3.724,1.067 -5.777,1.067 m -97.2,24.772 8.139,13.014 h -4.765 l -7.843,-13.014 z m 3.289,-7.142 c 0,-1.561 -0.478,-2.805 -1.433,-3.736 -0.955,-0.931 -2.475,-1.395 -4.555,-1.395 h -6.747 v 10.22 h 6.79 c 1.376,0 2.501,-0.211 3.373,-0.636 0.872,-0.425 1.517,-1.018 1.939,-1.785 0.422,-0.767 0.633,-1.655 0.633,-2.668 m -5.988,-8.581 c 2.333,0 4.253,0.39 5.756,1.171 1.503,0.781 2.629,1.814 3.373,3.1 0.744,1.286 1.118,2.723 1.118,4.311 a 9.01,9.01 0 0 1 -0.549,3.078 c -0.365,1.011 -0.955,1.938 -1.77,2.772 -0.815,0.834 -1.877,1.492 -3.184,1.971 -1.307,0.479 -2.875,0.718 -4.701,0.718 h -6.79 v 11.617 h -4.216 V 85.085 Z m 35.591,3.448 h -15.519 v 8.99 H 333.9 v 3.45 h -11.639 v 9.4 h 15.519 v 3.448 H 318.045 V 85.086 h 19.735 z m 16.825,10.222 c 1.378,0 2.51,-0.211 3.394,-0.636 0.884,-0.425 1.54,-1.02 1.961,-1.785 0.421,-0.765 0.633,-1.656 0.633,-2.669 0,-1.614 -0.478,-2.874 -1.435,-3.776 -0.957,-0.902 -2.474,-1.355 -4.554,-1.355 h -6.79 v 10.222 z m 10.205,-5.091 a 9.19,9.19 0 0 1 -0.547,3.1 c -0.365,1.027 -0.956,1.949 -1.772,2.772 -0.816,0.823 -1.877,1.47 -3.184,1.949 -1.307,0.479 -2.875,0.718 -4.701,0.718 h -6.79 v 11.617 H 343.6 V 85.086 h 11.006 c 2.305,0 4.209,0.39 5.715,1.171 1.506,0.781 2.627,1.82 3.373,3.12 0.746,1.3 1.116,2.73 1.116,4.289 m 4.85,-8.58 h 4.216 v 18.267 c 0,1.643 0.323,3.004 0.97,4.086 a 5.826,5.826 0 0 0 2.656,2.381 c 1.123,0.507 2.389,0.759 3.797,0.759 1.433,0 2.704,-0.253 3.816,-0.759 1.112,-0.506 1.989,-1.301 2.635,-2.381 0.646,-1.08 0.97,-2.443 0.97,-4.086 V 85.086 h 4.216 v 18.187 c 0,1.861 -0.315,3.468 -0.948,4.823 -0.633,1.355 -1.505,2.477 -2.615,3.366 a 11.425,11.425 0 0 1 -3.754,1.991 14.476,14.476 0 0 1 -4.364,0.656 c -2.023,0 -3.922,-0.39 -5.692,-1.171 a 9.85,9.85 0 0 1 -4.28,-3.57 c -1.084,-1.601 -1.624,-3.634 -1.624,-6.096 z m 33.988,25.288 h 8.391 c 1.799,0 3.212,-0.404 4.239,-1.211 1.027,-0.807 1.54,-1.964 1.54,-3.47 0,-1.532 -0.542,-2.701 -1.624,-3.51 -1.082,-0.809 -2.51,-1.211 -4.28,-1.211 h -8.266 z M 417.057,93.05 c 0,-1.395 -0.471,-2.497 -1.412,-3.304 -0.941,-0.807 -2.298,-1.211 -4.068,-1.211 h -7.929 v 8.99 h 7.97 c 1.715,0 3.05,-0.395 4.007,-1.191 0.957,-0.796 1.433,-1.887 1.433,-3.284 m -17.626,20.773 V 85.087 h 12.524 c 2.08,0 3.809,0.342 5.187,1.027 1.378,0.685 2.41,1.588 3.1,2.708 0.69,1.12 1.034,2.368 1.034,3.736 0,1.288 -0.248,2.368 -0.738,3.244 a 5.87,5.87 0 0 1 -1.94,2.093 8.139,8.139 0 0 1 -2.72,1.109 v 0.286 c 1.208,0.166 2.269,0.514 3.184,1.047 0.915,0.533 1.629,1.281 2.15,2.237 0.521,0.956 0.779,2.15 0.779,3.572 a 7.05,7.05 0 0 1 -1.137,3.9 c -0.76,1.177 -1.849,2.1 -3.269,2.772 -1.42,0.672 -3.141,1.005 -5.166,1.005 z m 32.301,-28.737 v 25.287 h 13.494 v 3.45 h -17.71 V 85.086 Z m 17.921,28.738 h 4.216 V 85.086 h -4.216 z m 10.88,-28.738 h 4.216 v 12.439 h 1.519 l 11.555,-12.439 h 5.312 l -13.114,14.163 13.282,14.575 h -5.524 l -11.555,-12.85 h -1.476 v 12.85 h -4.216 z m -169.308,66.81 h 4.216 v -28.737 h -4.216 z"
       id="path8" />
    <path
       id="use10"
       d="m 325.34,123.158 v 28.737 h -4.301 L 306.32,129.644 v 22.251 h -4.216 v -28.737 h 4.301 l 14.719,22.168 v -22.168 z" />
    <path
       d="m 342.124,148.446 c 3.711,0 6.528,-0.951 8.455,-2.854 1.927,-1.903 2.888,-4.548 2.888,-7.943 0,-3.448 -0.963,-6.151 -2.888,-8.107 -1.925,-1.956 -4.744,-2.936 -8.455,-2.936 h -5.904 v 21.839 z m 0,-25.287 c 3.205,0 5.968,0.588 8.287,1.765 2.319,1.177 4.118,2.847 5.398,5.007 1.28,2.16 1.918,4.736 1.918,7.719 0,2.956 -0.64,5.495 -1.918,7.615 -1.278,2.12 -3.079,3.756 -5.398,4.907 -2.319,1.151 -5.082,1.723 -8.287,1.723 h -10.12 v -28.736 z m 33.862,25.493 c 1.996,0 3.788,-0.452 5.378,-1.355 1.59,-0.903 2.845,-2.189 3.773,-3.858 0.928,-1.669 1.392,-3.639 1.392,-5.912 0,-2.299 -0.463,-4.275 -1.392,-5.932 -0.929,-1.657 -2.185,-2.936 -3.773,-3.838 -1.588,-0.902 -3.382,-1.355 -5.378,-1.355 -2.025,0 -3.838,0.45 -5.439,1.355 -1.601,0.905 -2.861,2.182 -3.774,3.838 -0.913,1.656 -1.371,3.632 -1.371,5.932 0,2.273 0.458,4.242 1.371,5.912 0.913,1.67 2.171,2.956 3.774,3.858 1.603,0.902 3.415,1.355 5.439,1.355 m 0,3.53 c -2.082,0 -4.027,-0.355 -5.84,-1.067 -1.813,-0.712 -3.394,-1.718 -4.744,-3.018 a 13.86,13.86 0 0 1 -3.162,-4.639 c -0.76,-1.792 -1.139,-3.77 -1.139,-5.932 0,-2.162 0.378,-4.133 1.139,-5.912 a 14.15,14.15 0 0 1 3.162,-4.639 14.137,14.137 0 0 1 4.744,-3.038 c 1.813,-0.712 3.759,-1.067 5.84,-1.067 2.052,0 3.977,0.355 5.777,1.067 a 14.19,14.19 0 0 1 4.724,3.038 14.15,14.15 0 0 1 3.162,4.639 c 0.76,1.778 1.139,3.75 1.139,5.912 0,2.162 -0.378,4.14 -1.139,5.932 a 13.86,13.86 0 0 1 -3.162,4.639 14.335,14.335 0 0 1 -4.724,3.018 c -1.8,0.712 -3.724,1.067 -5.777,1.067"
       id="path12" />
    <path
       id="use14"
       d="m 418.999,123.158 v 28.737 h -4.301 l -14.719,-22.251 v 22.251 h -4.216 v -28.737 h 4.301 l 14.719,22.168 v -22.168 z" />
    <path
       d="m 445.397,126.607 h -15.519 v 8.99 h 11.639 v 3.45 h -11.639 v 9.4 h 15.519 v 3.448 h -19.735 v -28.736 h 19.735 z m 8.349,17.693 a 5.216,5.216 0 0 0 1.034,2.135 c 0.521,0.658 1.228,1.191 2.13,1.601 0.902,0.41 2.009,0.615 3.33,0.615 1.968,0 3.423,-0.444 4.364,-1.333 0.941,-0.889 1.414,-1.936 1.414,-3.142 0,-0.985 -0.289,-1.799 -0.865,-2.442 -0.576,-0.643 -1.364,-1.191 -2.362,-1.643 -0.998,-0.452 -2.143,-0.854 -3.437,-1.211 l -3.31,-1.047 a 13.42,13.42 0 0 1 -2.931,-1.395 6.2,6.2 0 0 1 -2.066,-2.177 c -0.506,-0.889 -0.759,-2.005 -0.759,-3.346 0,-1.668 0.408,-3.105 1.223,-4.309 0.815,-1.204 1.961,-2.128 3.437,-2.772 1.476,-0.644 3.182,-0.965 5.123,-0.965 1.631,0 3.093,0.226 4.385,0.677 1.292,0.451 2.383,1.095 3.269,1.929 a 7.62,7.62 0 0 1 1.961,3.018 l -3.838,1.355 c -0.169,-0.601 -0.52,-1.169 -1.053,-1.703 -0.533,-0.534 -1.209,-0.965 -2.025,-1.293 -0.816,-0.328 -1.729,-0.494 -2.74,-0.494 -1.041,-0.027 -1.977,0.131 -2.806,0.472 -0.829,0.341 -1.49,0.829 -1.982,1.459 -0.492,0.63 -0.738,1.382 -0.738,2.257 0,0.958 0.28,1.71 0.845,2.257 0.565,0.547 1.313,1 2.255,1.355 l 3.1,1.027 3.458,1.149 c 1.123,0.41 2.143,0.931 3.057,1.561 a 7.49,7.49 0 0 1 2.214,2.36 c 0.563,0.945 0.843,2.128 0.843,3.552 0,1.532 -0.365,2.929 -1.096,4.187 -0.731,1.258 -1.834,2.273 -3.31,3.038 -1.476,0.765 -3.325,1.149 -5.546,1.149 -1.827,0 -3.472,-0.273 -4.934,-0.821 -1.462,-0.548 -2.663,-1.306 -3.606,-2.278 a 7.207,7.207 0 0 1 -1.877,-3.388 z m 21.843,7.596 h 4.216 v -28.737 h -4.216 z"
       id="path16" />
    <path
       id="use18"
       d="m 488.916,141.139 h 17.206 v 3.448 h -17.206 z m 9.615,-14.533 h -1.476 l -9.277,25.289 h -4.302 l 10.628,-28.737 h 7.296 l 10.626,28.737 h -4.301 z" />
  </g>
  <defs
     id="defs24">
    <path
       id="a"
       d="m 320.491,64.994 h 17.206 v 3.448 h -17.206 z m 9.615,-14.533 h -1.476 l -9.277,25.289 h -4.302 l 10.628,-28.737 h 7.296 L 343.601,75.75 H 339.3 Z" />
    <path
       id="b"
       d="m 325.34,123.158 v 28.737 h -4.301 L 306.32,129.644 v 22.251 h -4.216 v -28.737 h 4.301 l 14.719,22.168 v -22.168 z" />
  </defs>
  <g
     aria-label="TERNATE"
     id="text3465"
     style="font-weight:bold;font-size:14.1111px;font-family:'Albert Sans';-inkscape-font-specification:'Albert Sans Bold';letter-spacing:1.05834px;fill:#002873;stroke-width:0.264584">
    <path
       d="m 0,45.159599 h 8.0009938 v 1.594554 H 4.9529962 v 8.283216 H 3.0479977 V 46.754153 H 0 Z"
       id="path3467" />
    <path
       d="m 17.427216,46.754153 h -5.037663 v 2.511776 h 3.767664 v 1.53811 h -3.767664 v 2.638775 h 5.037663 v 1.594555 h -6.942661 v -9.87777 h 6.942661 z"
       id="path3469" />
    <path
       d="m 25.780988,48.207596 q 0,-0.663221 -0.409222,-1.058332 -0.395111,-0.395111 -1.241777,-0.395111 h -2.102553 v 2.920998 h 2.102553 q 0.564444,0 0.931333,-0.169334 0.366889,-0.183444 0.536222,-0.507999 0.183444,-0.338667 0.183444,-0.790222 z m -1.594554,-3.047997 q 1.199443,0 1.975554,0.423333 0.790222,0.409222 1.171221,1.114777 0.395111,0.691443 0.395111,1.509887 0,0.550333 -0.197555,1.100666 -0.197556,0.536222 -0.620889,0.987777 -0.423333,0.437444 -1.100666,0.705555 -0.663221,0.268111 -1.622776,0.268111 h -2.158998 v 3.767664 h -1.904999 v -9.87777 z m 1.072443,5.475107 2.666998,4.402663 H 25.795099 L 23.24099,50.634706 Z"
       id="path3471" />
    <path
       d="m 38.607982,45.159599 v 9.87777 h -1.933221 l -4.332107,-6.857995 v 6.857995 h -1.904999 v -9.87777 h 1.933221 l 4.332107,6.857994 v -6.857994 z"
       id="path3473" />
    <path
       d="m 46.100981,46.754153 h -0.508 l -2.906886,8.283216 h -1.961443 l 3.541886,-9.87777 h 3.146775 l 3.541886,9.87777 h -1.961443 z m -3.231442,4.416774 h 5.757329 v 1.594555 h -5.757329 z"
       id="path3475" />
    <path
       d="m 51.576099,45.159599 h 8.000994 v 1.594554 h -3.047997 v 8.283216 h -1.904999 v -8.283216 h -3.047998 z"
       id="path3477" />
    <path
       d="m 69.003314,46.754153 h -5.037663 v 2.511776 h 3.767664 v 1.53811 h -3.767664 v 2.638775 h 5.037663 v 1.594555 h -6.942662 v -9.87777 h 6.942662 z"
       id="path3479" />
  </g>
</svg>
