<svg xmlns="http://www.w3.org/2000/svg" viewBox="0 0 312.06 270.2"><title>logo_black</title><g id="Layer_2" data-name="Layer 2"><g id="Layer_1-2" data-name="Layer 1"><path d="M82.78,270.2c-4.61-1.11-9.26-2.08-13.83-3.34C7.64,249.94-18.53,183.27,14.2,127.41,35.1,91.73,74.26,74.31,114.5,82.8c1.43.3,2.82.77,4.55,1.25-3,7.06-5.69,13.82-8.78,20.41-.52,1.11-2.83,2.19-4.13,2-27.35-4.09-54.27,11-68.15,39.87-8.58,17.85-12.69,36.51-6.55,56C38.76,225.5,55.6,238.9,78.73,244c23.49,5.16,43.66-2.27,58.85-20.6,17.74-21.4,25.93-45.76,18-73.68-3.26-11.44-8.69-19.34-21-31.41l9.79-22.94a72.06,72.06,0,0,1,20.88,17.8c19,23,26.14,49.3,20.35,78.63-3,15.23,2.6,27.45,12,38.31,16.82,19.33,48.69,22.62,69.37,7.55,11.63-8.48,16.7-20.24,16.7-34.42q0-56.05,0-112.12V84.8h28.41V210.4c-.81,3.5-1.47,7-2.46,10.51-6.91,24.15-24.14,37.66-47.05,45-5.94,1.9-12.18,2.87-18.28,4.26H224.34a26.06,26.06,0,0,0-3.25-.95c-23.16-3.54-42.15-13.57-54.22-35.07l-4,4.59a89.78,89.78,0,0,1-47.64,29c-3.5.85-7,1.59-10.54,2.38Z"/><path d="M31.74,27.7V0H158.12V27.7Z"/></g></g></svg>